<svg xmlns="http://www.w3.org/2000/svg" xmlns:xlink="http://www.w3.org/1999/xlink" version="1.1" x="0px" y="0px" viewBox="0 0 1000 1000" style="enable-background:new 0 0 1000 1000;" xml:space="preserve" width="1000"  height="1000" >
<style type="text/css">
	.st0{fill:url(#SVGID_1_);}
	.st1{fill:#87BEFC;}
	.st2{fill:#FFFFFF;}
	.st3{fill:#BDD8FB;}
	.st4{fill:none;stroke:#FFFFFF;stroke-width:0.4645;stroke-miterlimit:10;}
	.st5{fill:none;stroke:#FFFFFF;stroke-width:0.4847;stroke-miterlimit:10;}
	.st6{fill:url(#SVGID_00000030444370858724651000000016348459947633072295_);}
	.st7{fill:#DA9E6F;}
	.st8{fill:#B3D7FF;}
	.st9{fill:url(#SVGID_00000049222786017540208370000012279085116985182911_);}
	.st10{fill:url(#SVGID_00000142868925937756628460000014886493355704439181_);}
	.st11{fill:url(#SVGID_00000147210263047045994980000014710146835327044242_);}
	.st12{fill:url(#SVGID_00000054254098147746872740000000464493746535967116_);}
	.st13{fill:url(#SVGID_00000170245062980424193070000011445000434936955570_);}
	.st14{fill:url(#SVGID_00000040577054759931507270000000518195145745386371_);}
	.st15{opacity:0.7;fill:url(#SVGID_00000047747925133839363240000016486005086706116019_);enable-background:new    ;}
	.st16{fill:#E6F2FF;stroke:#007BFF;stroke-width:0.8508;}
	.st17{fill:#007BFF;}
	.st18{fill:#FFFFFF;stroke:#007BFF;stroke-width:0.8508;}
	.st19{fill:#CCE5FF;}
	.st20{fill:none;stroke:#E5E5E5;stroke-miterlimit:10;}

	#A{
		transform-origin: 50% 70% !important;
		animation: card-A 6s infinite ease-in-out;
	}

	#B{
		transform-origin: 50% 70% !important;
		animation: card-A 6s 1.5s infinite ease-in-out;
	}

	#equal{
		transform-origin: 50% 50% !important;
		animation: card-A 6s 3s infinite ease-in-out;
	}

	@keyframes card-A {
		10% {transform: scale(1)}
		20% {transform: scale(1.1)}
		30% {transform: scale(1.1)}
		40% {transform: scale(1)}
	}



	#p1{	
		opacity:0.3;
		transform-origin: 50% 50% !important;
		animation: op 12s  infinite ease-in-out;
	}
	#p2{	
		opacity:0.3;
		transform-origin: 50% 50% !important;
		animation: op 12s 1.5s infinite ease-in-out;
	}
	#p3{	
		opacity:0.3;
		transform-origin: 50% 50% !important;
		animation: op 12s 3s infinite ease-in-out;
	}
	#p4{	
		opacity:0.3;
		transform-origin: 50% 50% !important;
		animation: op 12s 4.5s infinite ease-in-out;
	}
	#p5{	
		opacity:0.3;
		transform-origin: 50% 50% !important;
		animation: op 12s 6s infinite ease-in-out;
	}
	#p6{	
		opacity:0.3;
		transform-origin: 50% 50% !important;
		animation: op 12s 7.5s infinite ease-in-out;
	}
	#p7{	
		opacity:0.3;
		transform-origin: 50% 50% !important;
		animation: op 12s 9s infinite ease-in-out;
	}
	#p8{	
		opacity:0.3;
		transform-origin: 50% 50% !important;
		animation: op 12s 10.5s infinite ease-in-out;
	}

	@keyframes op {
		5% {opacity:0.3;transform: scale(1)}
		10% {opacity:1;transform: scale(1.05)}
		15% {opacity:1.5;transform: scale(1.05)}
		20% {opacity:0.3;transform: scale(1)}
	}
	

</style>
<g id="p8">
	<g>
		<g>
			<g>
				<g>
					<linearGradient id="SVGID_1_" gradientUnits="userSpaceOnUse" x1="257.2103" y1="353.6848" x2="257.2103" y2="126.3188">
						<stop offset="8.664154e-03" style="stop-color:#87BEFC"/>
						<stop offset="1" style="stop-color:#FFFFFF"/>
					</linearGradient>
					<path className="st0" d="M369.9,296.8c-6.9,19.9-19.1,37.5-34.8,51.1c-8.6,7.4-18.2,13.6-28.6,18.3c-0.2,0.1-0.4,0.2-0.6,0.3       c-45.5,20.3-94.7,9.6-128.1-19.8c-24.2-21.4-40.1-52.7-40.1-89.2c0-66,53.5-119.5,119.4-119.5       C338.2,136.7,397.5,220.9,369.9,296.8z"/>
					<g>
						<g>
							<g>
								<g>
									<g>
										<g>
											<path className="st1" d="M335,347.9c-8.6,7.4-18.2,13.6-28.6,18.3c-0.2,0.1-0.4,0.2-0.6,0.3c-45.5,20.3-94.7,9.6-128.1-19.8             c1.6-10.6,3.3-21.8,3.8-23.9c4.4-19.6,28-36.5,46.8-36.5c0,0,0.1,0,0.4-0.1c1.8-0.3,9.3-1.7,8.7-3.5h36.1             c4,0.5,13.3,0.8,22.1,4.8c14.2,8,24.7,17.5,31.9,31.9C331.4,327.8,333.3,337.4,335,347.9z"/>
											<path className="st2" d="M190.1,251.1c-0.7,7-5.7,11.7-9.4,17.2h132.8c-0.9-20.1-3.8-39.3-10.8-57             c-8.1-19.2-18.4-35.8-34.4-42c-16.6-6.1-49.5,7.3-58.5,27.6c-2.3,7.1-0.7,13-6.2,19.1c-5.2,5.7-13.3,8.5-14.9,16.9             C187.6,239,190.7,244.9,190.1,251.1z"/>
											<path className="st3" d="M287,223.5c-12.5-45.6-40-34.2-58-2.6c-0.1,0-0.2,0-0.3,0.1c-1.1-1.6-3.8-4.5-7.3-2.2             c-7,4.8-0.3,23.5,6.6,24.1c-0.2,1.4,2.3,12.5,4.7,15.9c1.5,8.2,1.5,18.4-4.8,28.6c-1.4,2.2-0.4,3.3,0.4,5.9             c9.9,23.4,44,23.1,46.6-4.6c-4.8-9.6-6.5-17.5-7-24.1C279.8,256.8,289.1,241.1,287,223.5z"/>
											<path className="st1" d="M231.8,278.7l0,0.1c0,0,25.4,2.8,30.1-12.2c-11.2,1.6-24.3-3.8-32.1-15.2             C232.2,262.1,234.5,272.5,231.8,278.7z"/>
											
												<ellipse transform="matrix(0.5727 -0.8197 0.8197 0.5727 -99.6314 289.0585)" className="st2" cx="227.5" cy="240.1" rx="1.6" ry="1.7"/>
										</g>
									</g>
								</g>
							</g>
						</g>
					</g>
				</g>
			</g>
			<path className="st4" d="M285,234.7h-18.7c-1.4,0-2.5-1.1-2.5-2.5v-10.6h22.6v11.7C286.5,234.1,285.8,234.7,285,234.7z"/>
			<path className="st5" d="M255.4,234.7h-20.3c-0.8,0-1.5-0.7-1.5-1.5v-11.7h24.6v10.3C258.3,233.4,257,234.7,255.4,234.7z"/>
			<line className="st5" x1="228.4" y1="221.6" x2="286.5" y2="221.6"/>
		</g>
		<g>
			<path className="st2" d="M257.2,145.2c30.5,0,59.1,11.9,80.6,33.4c21.5,21.5,33.4,50.2,33.4,80.6s-11.9,59.1-33.4,80.6     c-21.5,21.5-50.2,33.4-80.6,33.4s-59.1-11.9-80.6-33.4c-21.5-21.5-33.4-50.2-33.4-80.6c0-30.5,11.9-59.1,33.4-80.6     C198.1,157,226.8,145.2,257.2,145.2 M257.2,137.2c-67.4,0-122,54.6-122,122s54.6,122,122,122s122-54.6,122-122     S324.6,137.2,257.2,137.2L257.2,137.2z"/>
		</g>
	</g>
</g>
<g id="p7">
	<g>
		<g>
			<g>
				<g>
					<g>
						<g>
							<g>
								<g>
									
										<linearGradient id="SVGID_00000068678591409728162910000001490634115254117264_" gradientUnits="userSpaceOnUse" x1="157.9362" y1="622.3458" x2="157.9362" y2="423.1506">
										<stop offset="8.664154e-03" style="stop-color:#87BEFC"/>
										<stop offset="1" style="stop-color:#FFFFFF"/>
									</linearGradient>
									<path style="fill:url(#SVGID_00000068678591409728162910000001490634115254117264_);" d="M277.4,499.5           c0.5,80.8-80.5,139.3-157.2,113.4c-47-15.2-81-60.8-81.7-110.4C36.4,436.8,90.3,379.7,157.9,380           C223.9,380,277.4,433.5,277.4,499.5z"/>
									<g>
										<g>
											<g>
												<g>
													<path className="st1" d="M254.2,570.3c-0.6,0.8-1.2,1.6-1.8,2.4c-1.2,1.6-2.5,3.1-3.8,4.6c-21,24.4-51.8,40.3-86.3,41.5               c-1.4,0.1-2.9,0.1-4.4,0.1c-13.2,0-25.9-2.1-37.7-6.1c-15.8-5.2-30.1-13.7-42.1-24.6c-2.4-2.2-4.8-4.5-7.1-6.9               c-1.1-1.2-2.2-2.4-3.3-3.6l2.6-4c5-7.5,12.8-12.8,21.7-14.6l2.5-0.5l12.9-2.6c0,0-2.9-17.6,23.5-20.5               c26.4-2.9,55.7-2.9,55.7-2.9s14.7,2.9,17.6,20.5c0.2,1.3,17.9,4.5,19.6,4.9c5.1,1.3,17.5,2.5,20.8,7               c1.1,1.5,1.9,3.3,3.5,4.1C250,570.3,252.3,569.7,254.2,570.3z"/>
													<path className="st7" d="M132.5,545.4v-32.3c0-1.9,1.9-3.5,4.3-3.5h40.8c2.4,0,4.3,1.6,4.3,3.5v32.3               C181.9,560.6,132.6,560.6,132.5,545.4z"/>
													<path className="st8" d="M132.5,513.1v32.3c0,14.7,46,15.2,49.2,1.5c0.1-0.5,0.2-1,0.2-1.5v-32.3c0-1.9-1.9-3.5-4.3-3.5               h-40.8C134.5,509.6,132.5,511.2,132.5,513.1z"/>
													<path className="st2" d="M211.3,469.4c0,9.3-6.5,16.2-13.4,16.2c-4.4,0-3-11.1-3-16.5s3.6-11.2,7.9-11.2               S211.3,463.9,211.3,469.4z"/>
													<path className="st2" d="M101.8,469.4c0,9.3,6.5,16.2,13.4,16.2c4.4,0,3-11.1,3-16.5s-3.6-11.2-7.9-11.2               C105.9,457.8,101.8,463.9,101.8,469.4z"/>
													<path className="st2" d="M200,467.9v1.6c0,1.9-0.1,3.8-0.2,5.7c0,0.2,0,0.3,0,0.5c-1.2,13.3-10.2,23.5-14.9,34               c-5.6,12.5-15.7,23.7-28.2,23.7c-12.9,0-27.1-12.8-31.6-26.2c-4.3-12.9-11.1-21.1-11.8-32.8c-0.1-2.8-0.2-5.6-0.2-8.5               c0-32.9,14.2-53.9,45.5-54.3C189.4,411.1,200,435.7,200,467.9z"/>
												</g>
											</g>
										</g>
									</g>
								</g>
							</g>
						</g>
					</g>
				</g>
			</g>
			<path className="st1" d="M170.6,426.3c0,7.2-27.2,7.2-27.2,0l3.3-28.4c0-2.8,21.8-2.8,21.8,0L170.6,426.3z"/>
		</g>
		<g>
			<path className="st2" d="M157.9,386c30.5,0,59.1,11.9,80.6,33.4c21.5,21.5,33.4,50.2,33.4,80.6s-11.9,59.1-33.4,80.6     C217,602.1,188.4,614,157.9,614s-59.1-11.9-80.6-33.4c-21.5-21.5-33.4-50.2-33.4-80.6s11.9-59.1,33.4-80.6     C98.9,397.9,127.5,386,157.9,386 M157.9,378c-67.4,0-122,54.6-122,122s54.6,122,122,122s122-54.6,122-122S225.3,378,157.9,378     L157.9,378z"/>
		</g>
	</g>
</g>
<g id="p6">
	<g>
		<g>
			<g>
				
					<linearGradient id="SVGID_00000067927966619565633130000006595535715236415652_" gradientUnits="userSpaceOnUse" x1="257.2103" y1="841.4522" x2="257.2103" y2="614.0862">
					<stop offset="8.664154e-03" style="stop-color:#87BEFC"/>
					<stop offset="1" style="stop-color:#FFFFFF"/>
				</linearGradient>
				<path style="fill:url(#SVGID_00000067927966619565633130000006595535715236415652_);" d="M369.9,784.6      c-6.9,19.9-19.1,37.5-34.8,51.1c-8.6,7.4-18.2,13.6-28.6,18.3c-0.2,0.1-0.4,0.2-0.6,0.3c-45.5,20.3-94.7,9.6-128.1-19.8      c-24.2-21.4-40.1-52.7-40.1-89.2c0-66,53.5-119.5,119.4-119.5C338.2,624.5,397.5,708.7,369.9,784.6z"/>
				<g>
					<g>
						<g>
							<g>
								<g>
									<g>
										<path className="st1" d="M335,835.6c-8.6,7.4-18.2,13.6-28.6,18.3c-0.2,0.1-0.4,0.2-0.6,0.3c-45.5,20.3-94.7,9.6-128.1-19.8            c1.6-10.6,3.3-21.8,3.8-23.9c4.4-19.6,28-36.5,46.8-36.5c0,0,0.1,0,0.4-0.1c1.8-0.3,9.3-1.7,8.7-3.5h36.1            c4,0.5,13.3,0.8,22.1,4.8c14.2,8,24.7,17.5,31.9,31.9C331.4,815.6,333.3,825.2,335,835.6z"/>
										<ellipse className="st2" cx="249.8" cy="730.2" rx="42.8" ry="37.1"/>
										<ellipse className="st2" cx="256.1" cy="682.5" rx="42.8" ry="37.1"/>
										
											<ellipse transform="matrix(0.1069 -0.9943 0.9943 0.1069 -476.7463 881.0123)" className="st2" cx="252" cy="705.9" rx="37.1" ry="52.6"/>
										<path className="st3" d="M287,711.3c-12.5-45.6-40-34.2-58-2.6c-0.1,0-0.2,0-0.3,0.1c-1.1-1.6-3.8-4.5-7.3-2.2            c-7,4.8-0.3,23.5,6.6,24.1c-0.2,1.4,2.3,12.5,4.7,15.9c1.5,8.2,1.5,18.4-4.8,28.6c-1.4,2.2-0.4,3.3,0.4,5.9            c9.9,23.4,44,23.1,46.6-4.6c-4.8-9.6-6.5-17.5-7-24.1C279.8,744.6,289.1,728.8,287,711.3z"/>
										<path className="st1" d="M231.8,766.5l0,0.1c0,0,25.4,2.8,30.1-12.2c-11.2,1.6-24.3-3.8-32.1-15.2            C232.2,749.8,234.5,760.3,231.8,766.5z"/>
										
											<ellipse transform="matrix(0.5727 -0.8197 0.8197 0.5727 -499.4787 497.4709)" className="st2" cx="227.5" cy="727.9" rx="1.6" ry="1.7"/>
									</g>
								</g>
							</g>
						</g>
					</g>
				</g>
			</g>
		</g>
		<g>
			<path className="st2" d="M257.2,631.1c30.5,0,59.1,11.9,80.6,33.4c21.5,21.5,33.4,50.2,33.4,80.6s-11.9,59.1-33.4,80.6     c-21.5,21.5-50.2,33.4-80.6,33.4s-59.1-11.9-80.6-33.4c-21.5-21.5-33.4-50.2-33.4-80.6s11.9-59.1,33.4-80.6     C198.1,643,226.8,631.1,257.2,631.1 M257.2,623.1c-67.4,0-122,54.6-122,122s54.6,122,122,122s122-54.6,122-122     S324.6,623.1,257.2,623.1L257.2,623.1z"/>
		</g>
	</g>
</g>
<g id="p5">
	<g>
		<g>
			<g>
				<g>
					<g>
						<g>
							<g>
								<g>
									<g>
										
											<linearGradient id="SVGID_00000101816770915275492960000008278380762075074988_" gradientUnits="userSpaceOnUse" x1="499.7314" y1="958.7761" x2="499.7314" y2="736.2549">
											<stop offset="8.664154e-03" style="stop-color:#87BEFC"/>
											<stop offset="1" style="stop-color:#FFFFFF"/>
										</linearGradient>
										<path style="fill:url(#SVGID_00000101816770915275492960000008278380762075074988_);" d="M617.7,841.4            c0.2,34.4-14.5,64.6-37.3,85.9c-7,6.6-14.9,12.3-23.3,17c-15.7,8.8-33.5,14.2-52,15.1c-13.2,0.6-26.8-1-40.2-5.2            c-0.8-0.3-1.6-0.5-2.5-0.8c-28-9.1-51.2-29-65.5-54.1c-9.4-16.6-14.9-35.4-15.2-54.9c-2.1-64.9,51.1-121.2,117.9-121            C564.9,723.5,617.7,776.3,617.7,841.4z"/>
										<g>
											<g>
												<g>
													<g>
														<path className="st1" d="M580.4,927.3c-7,6.6-14.9,12.3-23.3,17c-15.7,8.8-33.5,14.2-52,15.1c-13.2,0.6-26.8-1-40.2-5.2                c-0.8-0.3-1.6-0.5-2.5-0.8c-28-9.1-51.2-29-65.5-54.1c3.3-0.7,6.6-1.3,10.2-1.9c0,0-2.9-17.4,23.2-20.3                c26.1-2.9,55-2.9,55-2.9s7.7,1.6,13,9.2c2,2.8,3.6,6.4,4.4,11.1c7.5,4.1,22.2,4.1,32.5,7.7c2.9,1,5.5,2.3,7.5,4.1                c0.8,1.8,7.8,6,15.8,10.4C566.3,920.9,575.1,925.2,580.4,927.3z"/>
														<path className="st7" d="M431.8,886.8v-31.9c0-1.9,1.9-3.5,4.2-3.5h40.3c2.3,0,4.2,1.6,4.2,3.5v31.9                C480.6,901.8,431.8,901.8,431.8,886.8z"/>
														<path className="st2" d="M431.8,854.9v31.9c0,14.5,45.5,15,48.6,1.5c0.1-0.5,0.2-1,0.2-1.5v-31.9c0-1.9-1.9-3.5-4.2-3.5                h-40.3C433.7,851.4,431.8,853,431.8,854.9z"/>
														<path className="st2" d="M503.2,811.7c0,9.2-5.6,16-11.7,16c-3.8,0-2.6-10.9-2.6-16.3c0-5.4,3.1-11,6.9-11                S503.3,806.3,503.2,811.7z"/>
														<path className="st2" d="M407.8,811.7c0,9.2,5.6,16,11.7,16c3.8,0,2.6-10.9,2.6-16.3c0-5.4-3.1-11-6.9-11                C411.4,800.3,407.8,806.3,407.8,811.7z"/>
														<path className="st2" d="M493.4,810.2C493.4,810.2,493.4,810.2,493.4,810.2v1.6c0,0.4,0,0.8,0,1.1c0,1.5-0.1,3-0.2,4.4                c0,0.2,0,0.3,0,0.5c-0.3,3.8-0.9,7.4-1.6,10.8c-1.8,8.3-4.6,15.9-7.4,22.9c-3.3,6-7.7,10.8-13.5,13.6                c-4.8,1.7-10,2.2-15,2.2c-6.2,0-14.1-0.9-20.5-3.9c0,0,0,0,0,0c-5.9-3.6-9.7-9.3-12.3-16c-2.8-10.3-4.3-19.2-4.9-28.7                c0-0.7-0.1-1.5-0.1-2.2c-0.1-2.7-0.2-5.5-0.2-8.4c0-32.5,4-53.6,39.6-53.6C491,754.5,493.4,778.5,493.4,810.2z"/>
														<path className="st8" d="M493.4,810.2c-25,23.4-49.2,33.9-75.6,6.3c0,0.7,0.1,1.5,0.1,2.2c0.6,9.9,1.7,20.1,4.9,28.7                c2.5,6.8,6.4,12.4,12.3,16c0,0,0,0,0,0c6.4,3,14.3,3.9,20.5,3.9c5,0,10.3-0.5,15-2.2c5.9-2.7,10.3-7.6,13.5-13.6                c2.8-7.1,5.6-14.6,7.4-22.9c0.9-5.4,1.5-10.7,1.8-15.8c0.1-1,0.1-1.9,0.2-2.8C493.5,810.1,493.5,810.2,493.4,810.2z                 M464.5,848.4c0,1.2-1,2.2-2.2,2.2h-15.8c-1.2,0-2.2-1-2.2-2.2v-3.3c0-1.2,1-2.2,2.2-2.2h15.8c1.2,0,2.2,1,2.2,2.2                V848.4z"/>
													</g>
												</g>
											</g>
										</g>
									</g>
								</g>
							</g>
						</g>
					</g>
				</g>
				<g>
					<g>
						<path className="st2" d="M609,872.2c-2.4,8.2-6.5,8.8-14.4,7.9c-4.7,2-5.8,14.5-12.4,6.1c-0.5-0.8-1.6-0.7-2,0.3        c-0.9,12.9-13.8-1.2-18-4.7c0,0,0,0.1,0,0.2c3.6,4.3,0.4,11.4-2.2,15.6c-4.4,5.6,7.8,9,1.6,15.4c-9.3,8.3,3.5,4.3-4.9,15.3        c-0.3,0.9,0,7.8,0.3,16.1c-27.7,15.6-61.2,19.7-92.2,9.9c6.9-17.5,25.7-42.4,25.7-42.4s-10.9,9-6.9,0.4        c1.8-3.9,25.4-31.5,21.1-50.6c-8.3,7.2-3.5-11.3,0-11c9.5-33.8,12.8-9,3.2-50.5c-5-26.3,16.4-24.7,18.4-18.1        c0.9,3,0.2,25.4-0.9,36.3c0.6-2.9,3.2-4.9,6.6-6.3c-1.4-4.6,21.5-6.9,15-2c2.1,0.1,4,0.3,5.6,0.7c2.4-6.5,5.8-15.5,6.4-17        c9.3-22.4,24.7-10.5,23-4.5c-0.9,3.1-9.5,13.5-15.7,20.7c10.9-2.8,6.9,24.2,2.4,25.3l-1.6,11.2c10.6-0.7,26.8-3.9,35.2,5.8        C606.1,859.6,611.3,865.1,609,872.2z"/>
						<g>
							<path className="st1" d="M573.4,861.8c1.7,6.4,10.8,9.5,20.5,7c9.6-2.5,16.1-9.7,14.5-16.1c-1.7-6.4-10.8-9.5-20.5-7         C578.3,848.3,571.8,855.5,573.4,861.8z"/>
							<path className="st1" d="M558.3,811.5l20.7-20.7c1.3-1.3,1.1-3.5-0.4-4.5h0c-3.3-2.2-7.5-2.2-10.8,0l0,0         c-1.4,0.9-2.4,2.3-2.9,3.9L558.3,811.5z"/>
							<path className="st1" d="M521.9,823.7l0.7-36.1c0-2.3-1.6-4.4-3.5-4.5l0,0c-4-0.2-7.1,2.7-8,7.2l0,0c-0.4,1.9-0.2,4,0.6,6         L521.9,823.7z"/>
							<path className="st8" d="M561.7,912.9c-1.7,1.7-2.7,2.9-3.2,3.8c-2.2,4.1,5.4,2.5-1.7,11.6c0,0,0,0,0,0.1c-0.3,0.8,0,7.8,0.4,16         c-15.7,8.8-33.5,14.2-52,15.1l7.3-27.7c0.7-5,2.5-9.9,5.7-13.1c2.6-1.9,3.9-4.1,3.8-7.3c1.6-5.6,13-1.6,13.5-8.1         c-0.1-0.3-0.2-0.6-0.3-0.9c-1.4-5.2,4.9-8.8,5-13.9c-0.6-2.4-2.3-8.3,2-7.5c-6.8-12.1,12.4-10.8,16.8-5.1         c1.4,2,2.6,4.1,3.6,6.2c-0.2-0.1-0.3-0.2-0.4-0.3c0,0,0,0.1,0,0.2c3.6,4.3,0.4,11.4-2.2,15.6         C555.7,903.2,567.8,906.6,561.7,912.9z"/>
						</g>
					</g>
				</g>
			</g>
			<path className="st8" d="M551.8,836.8c0,0.4-0.1,0.9-0.2,1.3c-0.6-2.2-2.6-3.8-4.9-3.8s-4.4,1.6-4.9,3.8c-0.1-0.4-0.2-0.8-0.2-1.3     c0-2.8,2.3-5.1,5.1-5.1S551.8,834,551.8,836.8z"/>
			<path className="st8" d="M566.5,835.5c0,0.3,0,0.7-0.1,1c-0.4-1.7-1.9-2.9-3.7-2.9s-3.3,1.2-3.7,2.9c-0.1-0.3-0.1-0.6-0.1-1     c0-2.1,1.7-3.8,3.8-3.8S566.5,833.4,566.5,835.5z"/>
		</g>
		<g>
			<path className="st2" d="M500,728.1c30.5,0,59.1,11.9,80.6,33.4c21.5,21.5,33.4,50.2,33.4,80.6s-11.9,59.1-33.4,80.6     c-21.5,21.5-50.2,33.4-80.6,33.4s-59.1-11.9-80.6-33.4c-21.5-21.5-33.4-50.2-33.4-80.6s11.9-59.1,33.4-80.6     C440.9,739.9,469.5,728.1,500,728.1 M500,720.1c-67.4,0-122,54.6-122,122s54.6,122,122,122s122-54.6,122-122     S567.4,720.1,500,720.1L500,720.1z"/>
		</g>
	</g>
</g>
<g id="p4">
	<g>
		<g>
			
				<linearGradient id="SVGID_00000083083019232435523440000012700875489002409366_" gradientUnits="userSpaceOnUse" x1="743.2134" y1="887.7903" x2="743.2134" y2="700.5243">
				<stop offset="8.664154e-03" style="stop-color:#87BEFC"/>
				<stop offset="1" style="stop-color:#FFFFFF"/>
			</linearGradient>
			<path style="fill:url(#SVGID_00000083083019232435523440000012700875489002409366_);" d="M861.3,744.8     c0,80.3-78.5,136.7-154.1,112.4c-0.2,0-0.3-0.1-0.5-0.2h0c-22.1-7.1-41.8-20.9-56.1-39.1c-16.4-20.8-25.4-46-25.4-73.2     C631.4,588.2,855,588.2,861.3,744.8z"/>
			<g>
				<g>
					<g>
						<g>
							<g>
								<g>
									<g>
										<path className="st2" d="M788.5,840.2h23.7v0.3c3.1-2.3,6.2-4.7,9.1-7.2c-3-13.5-6.2-24.7-10.7-31.4            c-22.7-32.9-58.8-35.2-94-34.7c0,0,0,0,0,0c-6.9,0.1-24.8,3-27.8,4.2c-15.5,6.1-41.5,7.1-54.3,19.5            c20.1,49.3,75.6,79.8,128,70.4c9-1.5,17.7-4,25.9-7.4V840.2z"/>
									</g>
								</g>
							</g>
						</g>
					</g>
					<g>
						<path className="st3" d="M843.8,775.4c-2.9,6.8-12.8,50.3-20.8,53.1c-23.8,24.9-60.3,37.3-95.2,33.7c8-25.6,20.7-66.2,28.8-92.2        c1-2.1,1.3-7.5,5-7.8c1.2-0.1,1.9-0.2,3.3,0c17.4,2.3,39,5.4,55.7,7.6c0,0,21.4,2.8,21.4,2.8        C843.5,772.7,844.3,774,843.8,775.4z"/>
						<path className="st1" d="M847.1,775.4c-2.9,6.8-12.8,50.3-20.8,53.1c-23.8,24.9-60.3,37.3-95.2,33.7c8-25.6,20.7-66.2,28.8-92.2        c1-2.1,1.4-8.5,5-7.8c18.2,2.4,41,5.3,59,7.6c0,0,21.4,2.8,21.4,2.8C846.8,772.7,847.6,774,847.1,775.4z"/>
						<g>
							<path className="st3" d="M776.1,774.6l-10.7-1.5c-0.6-0.1-1-0.6-0.9-1.2l0.7-4.9c0.1-0.6,0.6-1,1.2-0.9l10.7,1.5         c0.6,0.1,1,0.6,0.9,1.2l-0.7,4.9C777.2,774.2,776.7,774.6,776.1,774.6z"/>
						</g>
						<g>
							<path className="st3" d="M808.7,830.7c-5.8-19.4-26-19.7-40-5.9c-0.7,0.6-1.4,1.3-2.1,1.9c1.2-1.8,5-4.9,5.8-7.8         c4.9-17.9-16.4,4.2-20.7,9.8c-4,5.2-7.7,10.6-9.6,14.5c-0.1,0.2-0.2,0.4-0.2,0.7c-1.9,0.6-3.9,1.1-6,1.4         c2.8,4.6,3.3,9.8,4.8,16.2c16.1,2.4,39.1-4,50.2-9.7C803.2,845.5,809.2,844.2,808.7,830.7z"/>
							<path className="st2" d="M758,861.9c-16.9,2.1-34.6,0.6-50.8-4.7c11.2-5.3,23.3-11.1,32.9-15.7         C749.4,842.9,755.5,853.5,758,861.9z"/>
						</g>
					</g>
				</g>
				<g>
					<path className="st3" d="M742.6,777c0-0.3,0-0.7,0-1.1l0.4,2.2c-0.2-8,0.1-20.6,2.1-39.7l0.8-16c-3.8-28.9-54.9,8.6-54.9,8.6       s9.6,25.6-0.9,40.9C686.7,792.9,739.3,798,742.6,777z"/>
					<path className="st1" d="M760.1,709.6c-21.2,22.8-9.1-47.5-9.1-47.5S781.3,686.8,760.1,709.6L760.1,709.6z"/>
					<path className="st1" d="M743,778.1c-1.8-18-37.8-30.1-30.4-29.6c6.1-4.8,32-25.1,33.3-26.1C745.5,736.3,742,770.3,743,778.1z"/>
					<path className="st1" d="M754.2,664c0,6.2-22.3,3.8-34,3.8c-11.7,0-37.2,4-37.2-2.2s14.6-22.9,33.9-23.4       C735.2,641.8,754.2,657.9,754.2,664z"/>
					<path className="st3" d="M672.6,703c1.2,17.7,11.4,9.7,15.1,21.6c0.4,1.3,4.1,10.1,4.8,11.2c25.9,40.5,55.1,21.8,61.5,6.9       c8.2-13.7,10.6-50.6,4.8-64.2c-13.7-39.2-76.2-41.7-78.7,15.4C676.9,692.7,672.6,696,672.6,703z"/>
					<path className="st1" d="M677.7,693.8c7.8-0.3,11.8,4.3,17.1,12.1c13.9,2.2-0.4-10.3,8.1-30.8C697.3,647.3,664.6,669,677.7,693.8z"/>
					<path className="st1" d="M727.6,722.3c-5.1,0.8-12.6,2.5-15.6,5.2l20.5-0.1l0-0.7C732.5,723.9,730.2,721.9,727.6,722.3z"/>
					<path className="st1" d="M736.7,722.6c5.1,1.1,13.5,3.4,15.9,6.8l-21.1-2.1l0.3-1.5C732.3,723.5,734.4,722.1,736.7,722.6z"/>
				</g>
			</g>
		</g>
		<g>
			<path className="st2" d="M741.8,631.1c30.5,0,59.1,11.9,80.6,33.4c21.5,21.5,33.4,50.2,33.4,80.6s-11.9,59.1-33.4,80.6     c-21.5,21.5-50.2,33.4-80.6,33.4s-59.1-11.9-80.6-33.4c-21.5-21.5-33.4-50.2-33.4-80.6s11.9-59.1,33.4-80.6     C682.7,643,711.3,631.1,741.8,631.1 M741.8,623.1c-67.4,0-122,54.6-122,122s54.6,122,122,122s122-54.6,122-122     S809.2,623.1,741.8,623.1L741.8,623.1z"/>
		</g>
	</g>
</g>
<g id="p3">
	<g>
		<g>
			<g>
				
					<linearGradient id="SVGID_00000156565832113840684730000001304793993921849774_" gradientUnits="userSpaceOnUse" x1="5406.6445" y1="596.3157" x2="5406.6445" y2="368.9496" gradientTransform="matrix(-1 0 0 1 6248.167 0)">
					<stop offset="8.664154e-03" style="stop-color:#87BEFC"/>
					<stop offset="1" style="stop-color:#FFFFFF"/>
				</linearGradient>
				<path style="fill:url(#SVGID_00000156565832113840684730000001304793993921849774_);" d="M728.8,539.4      c6.9,19.9,19.1,37.5,34.8,51.1c8.6,7.4,18.2,13.6,28.6,18.3c0.2,0.1,0.4,0.2,0.6,0.3c45.5,20.3,94.7,9.6,128.1-19.8      c24.2-21.4,40.1-52.7,40.1-89.2c0-66-53.5-119.5-119.4-119.5C760.5,379.3,701.2,463.5,728.8,539.4z"/>
				<g>
					<g>
						<g>
							<g>
								<g>
									<g>
										<path className="st3" d="M763.7,590.5c8.6,7.4,18.2,13.6,28.6,18.3c0.2,0.1,0.4,0.2,0.6,0.3c45.5,20.3,94.7,9.6,128.1-19.8            c-1.6-10.6-3.3-21.8-3.8-23.9c-4.4-19.6-28-36.5-46.8-36.5c0,0-0.1,0-0.4-0.1c-1.8-0.3-9.3-1.7-8.7-3.5h-36.1            c-4,0.5-13.3,0.8-22.1,4.8c-14.2,8-24.7,17.5-31.9,31.9C767.3,570.5,765.5,580.1,763.7,590.5z"/>
										<ellipse className="st1" cx="863.4" cy="477" rx="31.1" ry="27"/>
										<ellipse className="st1" cx="831.9" cy="437.4" rx="32" ry="27.7"/>
										
											<ellipse transform="matrix(0.9943 -0.1069 0.1069 0.9943 -44.4127 93.1751)" className="st1" cx="846.7" cy="460.8" rx="52.6" ry="37.1"/>
										<path className="st2" d="M811.7,466.1c12.5-45.6,40-34.2,58-2.6c0.1,0,0.2,0,0.3,0.1c1.1-1.6,3.8-4.5,7.3-2.2            c7,4.8,0.3,23.5-6.6,24.1c0.2,1.4-2.3,12.5-4.7,15.9c-1.5,8.2-1.5,18.4,4.8,28.6c1.4,2.2,0.4,3.3-0.4,5.9            c-9.9,23.4-44,23.1-46.6-4.6c4.8-9.6,6.5-17.5,7-24.1C818.9,499.5,809.7,483.7,811.7,466.1z"/>
										<path className="st8" d="M866.9,521.4l0,0.1c0,0-25.4,2.8-30.1-12.2c11.2,1.6,24.3-3.8,32.1-15.2            C866.5,504.7,864.2,515.1,866.9,521.4z"/>
										
											<ellipse transform="matrix(0.8197 -0.5727 0.5727 0.8197 -119.4266 586.0041)" className="st2" cx="871.3" cy="482.7" rx="1.7" ry="1.6"/>
									</g>
								</g>
							</g>
						</g>
					</g>
				</g>
			</g>
		</g>
		<g>
			<path className="st2" d="M842.1,386c30.5,0,59.1,11.9,80.6,33.4c21.5,21.5,33.4,50.2,33.4,80.6s-11.9,59.1-33.4,80.6     c-21.5,21.5-50.2,33.4-80.6,33.4s-59.1-11.9-80.6-33.4c-21.5-21.5-33.4-50.2-33.4-80.6s11.9-59.1,33.4-80.6     C783,397.9,811.6,386,842.1,386 M842.1,378c-67.4,0-122,54.6-122,122s54.6,122,122,122s122-54.6,122-122S909.4,378,842.1,378     L842.1,378z"/>
		</g>
	</g>
</g>
<g id="p2">
	<g>
		<g>
			<g>
				<g>
					<g>
						<g>
							<g>
								<g>
									<g>
										
											<linearGradient id="SVGID_00000031914806520182601230000002679265125966888629_" gradientUnits="userSpaceOnUse" x1="741.7897" y1="381.6516" x2="741.7897" y2="181.1454">
											<stop offset="8.664154e-03" style="stop-color:#87BEFC"/>
											<stop offset="1" style="stop-color:#FFFFFF"/>
										</linearGradient>
										<path style="fill:url(#SVGID_00000031914806520182601230000002679265125966888629_);" d="M861.3,259.5            c0.5,80.8-80.5,139.3-157.2,113.4c-47-15.2-81-60.8-81.7-110.4c-2.1-65.8,51.8-122.8,119.4-122.5            C807.8,140,861.3,193.5,861.3,259.5z"/>
										<g>
											<g>
												<g>
													<g>
														<path className="st2" d="M838,330.3c-41.4,61.5-140.2,66.3-186.4,7.5c-6.6-8.3,13.7-16.6,24.4-18.5                c0,0,12.5-20.7,38.9-23.6c38.4-1.6,75.7-12,83.4,14.5c7.5,12.1,22.2,7,30.3,15C830.6,329.4,833.8,330,838,330.3z"/>
														<path className="st7" d="M716.4,305.4v-32.3c0-1.9,1.9-3.5,4.3-3.5h40.8c2.4,0,4.3,1.6,4.3,3.5v32.3                C765.8,320.6,716.4,320.6,716.4,305.4z"/>
														<path className="st3" d="M716.4,273.1l-0.1,39.1c0,14.7,46,15.2,49.2,1.5c0.1-0.5,0.3-7.8,0.3-8.4v-32.3                c0-1.9-1.9-3.5-4.3-3.5h-40.8C718.3,269.5,716.4,271.1,716.4,273.1z"/>
														<path className="st3" d="M788.7,229.3c0,9.3-5.7,16.2-11.9,16.2c-3.9,0-2.7-11.1-2.7-16.5s3.1-11.2,7-11.2                S788.7,223.9,788.7,229.3z"/>
														<path className="st3" d="M692,229.3c0,9.3,5.7,16.2,11.9,16.2c3.9,0,2.7-11.1,2.7-16.5s-3.1-11.2-7-11.2                S692,223.9,692,229.3z"/>
														<path className="st1" d="M778.9,227.7c-1.3,24.9-7.8,87.7-38.4,84.5c-33,2.7-36.9-52.7-38.3-78                C729,262.2,753.6,251.5,778.9,227.7z"/>
														<ellipse className="st1" cx="773" cy="206.3" rx="9.3" ry="24.8"/>
														<ellipse className="st1" cx="709.1" cy="206.3" rx="9.3" ry="24.8"/>
														<path className="st3" d="M778.8,227.8v1.6c0,1.9-0.1,3.8-0.2,5.7c0,0.2,0,0.3,0,0.5c-1.1,13.3-9.3,13-13.5,23.5                c-5,12.5-14.2,21.3-25.2,21.3c-11.4,0-19.6-5.8-23.6-19.3c-3.8-12.9-13.4-15.1-14-26.9c-0.1-2.8-0.2-5.6-0.2-8.5                c0-32.9,4-54.3,40.1-54.3C776.3,171.4,778.7,195.7,778.8,227.8z"/>
													</g>
												</g>
												<path className="st1" d="M711.9,208.6c0.5,5.2,5.3,0.9,10.9,0.4s10,2.9,9.5-2.3s-5.2-6.3-10.8-5.8              C715.9,201.5,711.4,203.4,711.9,208.6z"/>
												<path className="st1" d="M747.5,206.9c-0.5,5.1,4,1.2,9.6,1.7c5.6,0.5,10.3,5.2,10.8,0.1c0.5-5.1-4-7-9.6-7.5              S748,201.8,747.5,206.9z"/>
											</g>
										</g>
									</g>
								</g>
							</g>
						</g>
					</g>
				</g>
			</g>
			<path className="st1" d="M782.4,214.4c-0.8,1-1.3,1.7-1.7,2.2c-0.5-1.2-1-2.4-1.6-3.6v0c-3.4-7.1-8.1-12.9-14.1-17.8     c-7.5-6.2-17.1-11-28.8-15.8c-0.4-0.2-0.9-0.3-1.3-0.5v-34.3c0.4-3.2,1.6-5.3,3.4-6.4c0.7-0.5,1.5-0.8,2.4-1c0.4,0,0.8,0,1.2,0     c1.2,0,2.4,0,3.5,0c1.3,0.2,2.7,0.6,4.1,1.1c0,0,0,0,0,0c7.5,2.7,16.5,8.8,24.3,15.6c9.3,8,16.8,16.9,17.6,21.8     C797.1,192.3,787,208.2,782.4,214.4z"/>
			<path className="st1" d="M773.8,154L773.8,154c-5.4,6.7-13.2,12-21.8,16.9h0c-5.1,2.9-10.6,5.7-15.9,8.5c-7,3.7-13.8,7.5-19.8,12     c-5.9,4.3-10.8,9.3-14.2,15.3c-1.1,1.9-2,3.9-2.7,6c-0.4,1.3-0.8,2.6-1.1,3.9c-23.5-30-3.8-59.3,23.9-76.9     c0.6-0.4,1.2-0.8,1.9-1.2c5.4-0.8,10.8-1.2,16.4-1.2c0.4,0,0.8,0,1.2,0c1.2,0,2.4,0,3.5,0c5.1,0.1,10.1,0.6,15,1.3     c1.1,0.5,2.1,1,3.2,1.5l0,0C769.3,142.7,774.6,145.6,773.8,154z"/>
		</g>
		<g>
			<path className="st2" d="M741.6,145.2c0.1,0,0.1,0,0.2,0c1,0,2.1,0,3.3,0c4.6,0.1,9.3,0.5,14,1.3c26.7,4,51.1,17.6,68.9,38.1     c17.9,20.7,27.8,47.2,27.8,74.6c0,28.6-10.6,56-30,77l-0.2,0.2l0,0.1l0,0l0,0c-14.9,16.2-34,27.6-55.3,33.1l-0.6,0.1l-0.5,0.1     c-8.9,2.2-18.2,3.3-27.5,3.3c-0.1,0-0.1,0-0.2,0c0,0-0.1,0-0.1,0l-0.2,0h-0.2c-0.1,0-0.1,0-0.2,0c-0.3,0-0.7,0-1,0l-0.1,0h-0.1     c-0.3,0-0.6,0-0.9,0c-27.2-0.7-53-11-73.2-29.1l0-4.5h-4.7c-10-10.1-17.9-21.7-23.6-34.7c-6.3-14.4-9.5-29.8-9.5-45.6     c0-27.6,10-54.2,28.1-75c18-20.6,42.6-34,69.5-37.9c5-0.7,10.2-1.1,15.3-1.2l0.1,0l0.1,0C741.1,145.2,741.4,145.2,741.6,145.2      M741.8,137.2c-0.4,0-0.8,0-1.2,0c-5.5,0-11,0.5-16.4,1.2c-59.1,8.5-104.5,59.3-104.5,120.8c0,34.7,14.5,66.1,37.8,88.3     c0,0,0,0,0,0l0,0c21.2,20.2,49.6,32.8,81,33.6c0.4,0,0.8,0,1.1,0c0.4,0,0.9,0,1.4,0c0.2,0,0.4,0,0.7,0c10.1,0,20-1.2,29.4-3.6     c0.4-0.1,0.7-0.2,1.1-0.3c23.1-5.9,43.5-18.5,59.2-35.4c0.1-0.1,0.2-0.2,0.3-0.3c19.9-21.7,32.1-50.7,32.1-82.4     c0-61.1-44.9-111.7-103.5-120.6c-4.9-0.7-9.9-1.2-15-1.3C744.1,137.2,743,137.2,741.8,137.2L741.8,137.2z"/>
		</g>
	</g>
</g>
<g id="p1">
	<g>
		<g>
			<g>
				<g>
					
						<linearGradient id="SVGID_00000036215289720362678390000011367782848823743634_" gradientUnits="userSpaceOnUse" x1="500" y1="255.3897" x2="500" y2="25.2887">
						<stop offset="8.664154e-03" style="stop-color:#87BEFC"/>
						<stop offset="1" style="stop-color:#FFFFFF"/>
					</linearGradient>
					<path style="fill:url(#SVGID_00000036215289720362678390000011367782848823743634_);" d="M614,197.8c-7,20.2-19.3,38-35.3,51.7       c-0.9,0.8-1.9,1.6-2.8,2.3c-7.6,6.2-16,11.4-24.9,15.6c-0.4,0.2-0.8,0.4-1.3,0.6c-0.2,0.1-0.4,0.2-0.6,0.2       c-46,20.5-95.9,9.8-129.6-20.1c-24.5-21.6-40.5-53.3-40.6-90.3C379,91.1,433.1,37,499.9,37C582,35.8,642,121,614,197.8z"/>
					<g>
						<g>
							<g>
								<g>
									<g>
										<g>
											<path className="st3" d="M578.8,249.5c-8.7,7.5-18.4,13.8-29,18.5c-0.2,0.1-0.4,0.2-0.6,0.3c-46,20.5-95.9,9.8-129.6-20.1             c1.6-10.8,3.3-22.1,3.8-24.2c4.4-19.9,28.4-36.9,47.3-37c0,0,0.1,0,0.4-0.1c1.8-0.3,9.4-1.7,8.8-3.6h36.5             c4,0.5,13.5,0.8,22.4,4.9c14.4,8.1,25,17.7,32.3,32.2C575.1,229.2,577,239,578.8,249.5z"/>
											<ellipse className="st3" cx="489.1" cy="113.8" rx="54.5" ry="52.5"/>
											<path className="st2" d="M530.1,123.6c-12.6-46.1-40.5-34.7-58.7-2.7c-0.1,0-0.2,0-0.3,0.1c-1.1-1.6-3.9-4.6-7.4-2.2             c-7.1,4.8-0.3,23.8,6.7,24.4c-0.3,1.4,2.4,12.7,4.8,16.1c1.5,8.3,1.5,18.6-4.8,29c-1.4,2.3-0.4,3.3,0.4,5.9             c10,23.7,44.5,23.3,47.1-4.7c-4.8-9.7-6.6-17.8-7.1-24.4C522.9,157.4,532.2,141.4,530.1,123.6z"/>
											<path className="st8" d="M474.3,179.5l0,0.1c0,0,25.7,2.8,30.5-12.3c-11.4,1.6-24.6-3.8-32.5-15.4             C474.7,162.7,477,173.2,474.3,179.5z"/>
											
												<ellipse transform="matrix(0.5727 -0.8197 0.8197 0.5727 85.6535 445.208)" className="st2" cx="469.9" cy="140.4" rx="1.6" ry="1.7"/>
										</g>
									</g>
								</g>
							</g>
						</g>
					</g>
				</g>
			</g>
		</g>
		<g>
			<path className="st2" d="M500,43.9c30.5,0,59.1,11.9,80.6,33.4c21.5,21.5,33.4,50.2,33.4,80.6s-11.9,59.1-33.4,80.6     c-21.5,21.5-50.2,33.4-80.6,33.4s-59.1-11.9-80.6-33.4C397.9,217,386,188.4,386,157.9c0-30.5,11.9-59.1,33.4-80.6     C440.9,55.8,469.5,43.9,500,43.9 M500,35.9c-67.4,0-122,54.6-122,122s54.6,122,122,122s122-54.6,122-122S567.4,35.9,500,35.9     L500,35.9z"/>
		</g>
	</g>
</g>
<g id="shadow">
	
		<radialGradient id="SVGID_00000165234214872726017360000000998508929498054038_" cx="-457.8083" cy="1040.7656" r="1.11" gradientTransform="matrix(383.9819 -22.0471 -19.3001 -413.1507 196376.9531 420399.7188)" gradientUnits="userSpaceOnUse">
		<stop offset="0" style="stop-color:#2E3192;stop-opacity:0.8"/>
		<stop offset="1" style="stop-color:#2F55E5;stop-opacity:0"/>
	</radialGradient>
	<path style="opacity:0.3;fill:url(#SVGID_00000165234214872726017360000000998508929498054038_);enable-background:new    ;" d="   M500,961.2c256.3,0,464.1-206.5,464.1-461.2S756.3,38.8,500,38.8S35.9,245.3,35.9,500S243.7,961.2,500,961.2z"/>
</g>
<g id="equal">
	<g>
		<path className="st16" d="M342.1,646h319.9c4.5,0,8.1,3.6,8.1,8.1v43.4c0,4.5-3.6,8.1-8.1,8.1H342.1c-4.5,0-8.1-3.6-8.1-8.1v-43.4    C334,649.6,337.6,646,342.1,646z"/>
		<path className="st17" d="M469.8,685.3c-4.3,0-6.4-3-6.4-9c0-3.1,0.6-5.5,1.7-7.1c1.2-1.6,2.8-2.4,5-2.4c4.2,0,6.2,3,6.2,9.1    c0,3-0.6,5.3-1.7,7C473.5,684.5,471.9,685.3,469.8,685.3z M470,669.8c-1.7,0-2.6,2.1-2.6,6.4c0,4,0.8,6,2.5,6    c1.6,0,2.4-2.1,2.4-6.2C472.4,671.9,471.6,669.8,470,669.8z M493.5,689.1h-3.2c-2.7-3-4-6.6-4-10.9c0-4.2,1.3-7.8,4-11h3.2    c-2.5,3.3-3.8,7-3.8,11S491,685.8,493.5,689.1z M500.9,685.3c-4.3,0-6.4-3-6.4-9c0-3.1,0.6-5.5,1.7-7.1c1.2-1.6,2.8-2.4,5-2.4    c4.2,0,6.2,3,6.2,9.1c0,3-0.6,5.3-1.7,7C504.7,684.5,503.1,685.3,500.9,685.3z M501.1,669.8c-1.7,0-2.6,2.1-2.6,6.4    c0,4,0.8,6,2.5,6c1.6,0,2.4-2.1,2.4-6.2C503.5,671.9,502.7,669.8,501.1,669.8z M513.7,676.2c-1.3,0-2.3-0.4-3.1-1.2    c-0.8-0.8-1.2-1.9-1.2-3.3c0-1.5,0.4-2.7,1.2-3.5c0.8-0.9,1.9-1.3,3.3-1.3c1.3,0,2.4,0.4,3.1,1.2c0.7,0.8,1.1,1.9,1.1,3.3    c0,1.5-0.4,2.6-1.2,3.5C516.2,675.8,515.1,676.2,513.7,676.2z M514,669.1c-1.2,0-1.8,0.8-1.8,2.5c0,1.6,0.6,2.4,1.7,2.4    c1.2,0,1.8-0.8,1.8-2.5C515.7,669.9,515.1,669.1,514,669.1z M526.8,667.1L515.2,685h-3l11.6-17.9H526.8z M524.9,685.3    c-1.3,0-2.3-0.4-3.1-1.2c-0.8-0.8-1.2-1.9-1.2-3.3c0-1.5,0.4-2.7,1.2-3.5c0.8-0.9,1.9-1.3,3.3-1.3c1.3,0,2.4,0.4,3.1,1.2    c0.7,0.8,1.1,1.9,1.1,3.3c0,1.5-0.4,2.6-1.2,3.5C527.3,684.8,526.2,685.3,524.9,685.3z M525.1,678.1c-1.2,0-1.8,0.8-1.8,2.5    c0,1.6,0.6,2.4,1.8,2.4c1.2,0,1.8-0.8,1.8-2.5c0-0.8-0.2-1.4-0.5-1.8C526,678.4,525.6,678.1,525.1,678.1z M533.9,689.1h-3.2    c2.5-3.2,3.8-6.9,3.8-10.9c0-4-1.3-7.7-3.8-11h3.2c2.7,3.2,4,6.9,4,11C538,682.4,536.6,686.1,533.9,689.1z"/>
	</g>
</g>
<g id="B">
	<g>
		<path className="st18" d="M527.4,294.4h318.2c4.5,0,8.1,3.6,8.1,8.1v298.6c0,4.5-3.6,8.1-8.1,8.1H527.4c-4.5,0-8.1-3.6-8.1-8.1V302.5    C519.3,298.1,522.9,294.4,527.4,294.4z"/>
		<path className="st16" d="M527.1,549.7h319.9c4.5,0,8.1,3.6,8.1,8.1v43.4c0,4.5-3.6,8.1-8.1,8.1H527.1c-4.5,0-8.1-3.6-8.1-8.1v-43.4    C519,553.3,522.6,549.7,527.1,549.7z"/>
		<path className="st17" d="M645.9,583.7h7.6v3.3h-11.9v-1.3c0-0.9,0.2-1.7,0.5-2.5c0.3-0.7,0.7-1.4,1.2-2c0.5-0.6,1-1.1,1.5-1.5    c0.6-0.4,1.1-0.9,1.6-1.2c0.5-0.4,1-0.7,1.4-1.1c0.4-0.3,0.7-0.7,1-1c0.3-0.3,0.5-0.7,0.6-1c0.1-0.3,0.2-0.7,0.2-1.1    c0-0.8-0.2-1.3-0.6-1.7c-0.4-0.4-1.1-0.6-2-0.6c-1.5,0-3,0.6-4.4,1.8v-3.5c1.6-1,3.3-1.5,5.3-1.5c0.9,0,1.7,0.1,2.4,0.4    c0.7,0.2,1.3,0.6,1.8,1c0.5,0.4,0.9,1,1.1,1.6c0.3,0.6,0.4,1.3,0.4,2.1c0,0.8-0.1,1.6-0.4,2.2c-0.2,0.6-0.6,1.2-1,1.7    c-0.4,0.5-0.9,1-1.4,1.4c-0.5,0.4-1.1,0.9-1.7,1.3c-0.4,0.3-0.8,0.6-1.2,0.8c-0.4,0.3-0.7,0.5-1,0.8c-0.3,0.3-0.5,0.5-0.7,0.8    C646,583.3,645.9,583.5,645.9,583.7z M671.5,591.1h-3.2c-2.7-3-4-6.6-4-10.9c0-4.2,1.3-7.8,4-11h3.2c-2.5,3.3-3.8,7-3.8,11    S669,587.8,671.5,591.1z M673.2,586.4V583c1.2,0.9,2.6,1.3,4.2,1.3c1,0,1.8-0.2,2.3-0.6c0.6-0.4,0.8-1,0.8-1.8    c0-0.8-0.3-1.4-1-1.8c-0.7-0.4-1.6-0.6-2.9-0.6H675v-3h1.5c2.3,0,3.5-0.8,3.5-2.3c0-1.5-0.9-2.2-2.7-2.2c-1.2,0-2.4,0.4-3.5,1.2    v-3.2c1.3-0.6,2.7-0.9,4.4-0.9c1.8,0,3.2,0.4,4.3,1.2c1,0.8,1.5,1.9,1.5,3.2c0,2.3-1.2,3.8-3.6,4.4v0.1c1.3,0.2,2.3,0.6,3,1.4    c0.7,0.8,1.1,1.7,1.1,2.8c0,1.7-0.6,3-1.8,4c-1.2,1-2.9,1.5-5.1,1.5C675.8,587.3,674.3,587,673.2,586.4z M687.8,586.4V583    c1.2,0.9,2.6,1.3,4.2,1.3c1,0,1.8-0.2,2.3-0.6c0.6-0.4,0.8-1,0.8-1.8c0-0.8-0.3-1.4-1-1.8c-0.7-0.4-1.6-0.6-2.9-0.6h-1.7v-3h1.5    c2.3,0,3.5-0.8,3.5-2.3c0-1.5-0.9-2.2-2.7-2.2c-1.2,0-2.4,0.4-3.5,1.2v-3.2c1.3-0.6,2.7-0.9,4.4-0.9c1.8,0,3.2,0.4,4.3,1.2    c1,0.8,1.5,1.9,1.5,3.2c0,2.3-1.2,3.8-3.6,4.4v0.1c1.3,0.2,2.3,0.6,3,1.4c0.7,0.8,1.1,1.7,1.1,2.8c0,1.7-0.6,3-1.8,4    c-1.2,1-2.9,1.5-5.1,1.5C690.5,587.3,689,587,687.8,586.4z M706.4,578.2c-1.3,0-2.3-0.4-3.1-1.2c-0.8-0.8-1.2-1.9-1.2-3.3    c0-1.5,0.4-2.7,1.2-3.5c0.8-0.9,1.9-1.3,3.3-1.3c1.3,0,2.4,0.4,3.1,1.2c0.7,0.8,1.1,1.9,1.1,3.3c0,1.5-0.4,2.6-1.2,3.5    C708.9,577.8,707.8,578.2,706.4,578.2z M706.7,571.1c-1.2,0-1.8,0.8-1.8,2.5c0,1.6,0.6,2.4,1.7,2.4c1.2,0,1.8-0.8,1.8-2.5    C708.3,571.9,707.8,571.1,706.7,571.1z M719.5,569.1L707.8,587h-3l11.6-17.9H719.5z M717.6,587.3c-1.3,0-2.3-0.4-3.1-1.2    c-0.8-0.8-1.2-1.9-1.2-3.3c0-1.5,0.4-2.7,1.2-3.5c0.8-0.9,1.9-1.3,3.3-1.3c1.3,0,2.4,0.4,3.1,1.2c0.7,0.8,1.1,1.9,1.1,3.3    c0,1.5-0.4,2.6-1.2,3.5C720,586.8,718.9,587.3,717.6,587.3z M717.8,580.1c-1.2,0-1.8,0.8-1.8,2.5c0,1.6,0.6,2.4,1.8,2.4    c1.2,0,1.8-0.8,1.8-2.5c0-0.8-0.2-1.4-0.5-1.8C718.7,580.4,718.3,580.1,717.8,580.1z M726.6,591.1h-3.2c2.5-3.2,3.8-6.9,3.8-10.9    c0-4-1.3-7.7-3.8-11h3.2c2.7,3.2,4,6.9,4,11C730.7,584.4,729.3,588.1,726.6,591.1z"/>
		<path className="st19" d="M640,486.1V365.3h43.3c15.6,0,27.4,2.8,35.5,8.5c8.1,5.7,12.1,14,12.1,24.7c0,6.3-1.5,11.6-4.3,16    c-2.9,4.4-7,7.7-12.6,9.8c6.2,1.6,11.2,4.8,14.5,9.3c3.3,4.5,5.1,10.1,5.1,16.6c0,11.8-3.7,20.8-11.2,26.6c-7.4,6-18.6,8.9-33.2,9    H640V486.1z M669.1,415.7h15.2c6.4,0,10.9-1.2,13.6-3.5c2.7-2.3,4.1-5.6,4.1-10.1c0-5.1-1.5-8.8-4.4-11c-2.9-2.3-7.7-3.3-14.2-3.3    h-14.2V415.7z M669.1,434.7v29h19c5.2,0,9.3-1.2,12.1-3.6c2.8-2.4,4.3-5.9,4.3-10.1c0-10.1-5.1-15.2-15-15.2h-20.3V434.7z"/>
	</g>
</g>
<g id="A">
	<g>
		<path className="st18" d="M153.6,294.4h318.2c4.5,0,8.1,3.6,8.1,8.1v298.6c0,4.5-3.6,8.1-8.1,8.1H153.6c-4.5,0-8.1-3.6-8.1-8.1V302.5    C145.5,298.1,149.2,294.4,153.6,294.4z"/>
		<path className="st16" d="M153.1,549.7h319.9c4.5,0,8.1,3.6,8.1,8.1v43.4c0,4.5-3.6,8.1-8.1,8.1H153.1c-4.5,0-8.1-3.6-8.1-8.1v-43.4    C145,553.3,148.6,549.7,153.1,549.7z"/>
		<path className="st17" d="M279.4,569.1v11.3h2.1v2.9h-2.1v3.7h-3.6v-3.7H268v-3.1c0.7-0.8,1.4-1.6,2.1-2.5c0.7-0.9,1.5-1.9,2.1-2.8    c0.7-1,1.3-1.9,1.9-2.9c0.6-1,1.1-1.9,1.5-2.8H279.4z M271.6,580.4h4.3v-6.2c-0.3,0.5-0.6,1.1-0.9,1.6c-0.3,0.5-0.7,1.1-1.1,1.6    c-0.4,0.5-0.8,1.1-1.1,1.6C272.3,579.5,271.9,580,271.6,580.4z M298.5,591.1h-3.2c-2.7-3-4-6.6-4-10.9c0-4.2,1.3-7.8,4-11h3.2    c-2.5,3.3-3.8,7-3.8,11S296,587.8,298.5,591.1z M312.5,581.1c0,0.9-0.2,1.7-0.5,2.5c-0.3,0.8-0.7,1.4-1.3,2c-0.5,0.6-1.2,1-2,1.3    c-0.8,0.3-1.6,0.5-2.5,0.5c-1,0-1.9-0.2-2.7-0.6c-0.8-0.4-1.5-0.9-2-1.6c-0.5-0.7-1-1.6-1.3-2.6c-0.3-1-0.4-2.2-0.4-3.5    c0-1.5,0.2-2.9,0.6-4.2c0.4-1.3,0.9-2.3,1.6-3.2c0.7-0.9,1.6-1.6,2.6-2.1c1-0.5,2.1-0.7,3.4-0.7c1.4,0,2.5,0.2,3.2,0.5v3.3    c-0.9-0.5-1.9-0.8-3-0.8c-0.7,0-1.3,0.1-1.8,0.4c-0.5,0.3-1,0.6-1.4,1.1c-0.4,0.5-0.7,1-0.9,1.7c-0.2,0.7-0.3,1.4-0.3,2.2h0.1    c0.8-1.2,2.1-1.8,3.8-1.8c0.7,0,1.4,0.1,2,0.4c0.6,0.3,1.1,0.6,1.5,1.1c0.4,0.5,0.8,1.1,1,1.7    C312.4,579.5,312.5,580.2,312.5,581.1z M308.7,581.3c0-1.9-0.8-2.9-2.4-2.9c-0.4,0-0.7,0.1-1,0.2c-0.3,0.1-0.5,0.3-0.7,0.6    c-0.2,0.2-0.4,0.5-0.5,0.9c-0.1,0.3-0.2,0.7-0.2,1.1c0,0.4,0.1,0.9,0.2,1.2c0.1,0.4,0.3,0.7,0.5,1c0.2,0.3,0.5,0.5,0.8,0.7    c0.3,0.2,0.6,0.2,1,0.2c0.4,0,0.7-0.1,1-0.2c0.3-0.2,0.5-0.4,0.7-0.6c0.2-0.3,0.4-0.6,0.5-0.9    C308.6,582.2,308.7,581.8,308.7,581.3z M327,571.4c-0.8,1.4-1.5,2.8-2.1,4c-0.6,1.3-1.2,2.5-1.7,3.7c-0.5,1.2-0.9,2.5-1.2,3.7    c-0.3,1.3-0.6,2.6-0.8,4.1H317c0.2-1.4,0.5-2.7,0.9-4c0.4-1.3,0.8-2.5,1.3-3.7c0.5-1.2,1.1-2.4,1.7-3.5c0.6-1.1,1.3-2.3,1.9-3.4    h-8.3v-3.2H327V571.4z M333.4,578.2c-1.3,0-2.3-0.4-3.1-1.2c-0.8-0.8-1.2-1.9-1.2-3.3c0-1.5,0.4-2.7,1.2-3.5    c0.8-0.9,1.9-1.3,3.3-1.3c1.3,0,2.4,0.4,3.1,1.2c0.7,0.8,1.1,1.9,1.1,3.3c0,1.5-0.4,2.6-1.2,3.5    C335.9,577.8,334.8,578.2,333.4,578.2z M333.7,571.1c-1.2,0-1.8,0.8-1.8,2.5c0,1.6,0.6,2.4,1.7,2.4c1.2,0,1.8-0.8,1.8-2.5    C335.3,571.9,334.8,571.1,333.7,571.1z M346.5,569.1L334.8,587h-3l11.6-17.9H346.5z M344.6,587.3c-1.3,0-2.3-0.4-3.1-1.2    c-0.8-0.8-1.2-1.9-1.2-3.3c0-1.5,0.4-2.7,1.2-3.5c0.8-0.9,1.9-1.3,3.3-1.3c1.3,0,2.4,0.4,3.1,1.2c0.7,0.8,1.1,1.9,1.1,3.3    c0,1.5-0.4,2.6-1.2,3.5C347,586.8,345.9,587.3,344.6,587.3z M344.8,580.1c-1.2,0-1.8,0.8-1.8,2.5c0,1.6,0.6,2.4,1.8,2.4    c1.2,0,1.8-0.8,1.8-2.5c0-0.8-0.2-1.4-0.5-1.8C345.7,580.4,345.3,580.1,344.8,580.1z M353.6,591.1h-3.2c2.5-3.2,3.8-6.9,3.8-10.9    c0-4-1.3-7.7-3.8-11h3.2c2.7,3.2,4,6.9,4,11C357.7,584.4,356.3,588.1,353.6,591.1z"/>
		<path className="st19" d="M332.2,462.1h-39.5l-6.9,22.3h-30.7l43.8-119.1h27l44,119.1h-30.8L332.2,462.1z M299.7,439.9h25.6    l-12.8-41.4L299.7,439.9z"/>
	</g>
</g>

</svg>