<svg xmlns="http://www.w3.org/2000/svg" xmlns:xlink="http://www.w3.org/1999/xlink" version="1.1" x="0px" y="0px" viewBox="0 0 500 500" style="enable-background:new 0 0 500 500;" xml:space="preserve" width="500"  height="500" >
<style type="text/css">
	.st0{fill:url(#SVGID_1_);}
	.st1{fill:#99CAFF;}
	.st2{fill:url(#SVGID_00000029033561497854757830000009897522965704790707_);}
	.st3{fill:url(#SVGID_00000075877629411849067920000007908968893562073487_);}
	.st4{fill:#66B0FF;}
	.st5{fill:url(#SVGID_00000036251270192347590940000008607013404486314145_);}
	.st6{fill:url(#SVGID_00000176012691199981702880000014212434887187863990_);}
	.st7{fill:url(#SVGID_00000103985829499909940970000003333460695003223173_);}
	.st8{fill:url(#SVGID_00000176030208330594700960000014938599194613657254_);}
	.st9{fill:#FFFFFF;}
	.st10{fill:#007BFF;}
	.st11{fill:url(#SVGID_00000017507977131049367610000010504697255591788673_);}
	.st12{fill:url(#SVGID_00000161617126312391599660000007906275340635858873_);}
	.st13{fill:url(#SVGID_00000139991449936542036100000013377607750109120417_);}
	.st14{fill:url(#SVGID_00000108275578087595678640000002053970497918422670_);}
	.st15{fill:url(#SVGID_00000171722183900798797340000012709195723531118214_);}

	#alternatives, #agents{
		transform-origin: 50% 50% !important;
		animation: rotate 8s infinite ease-in-out alternate-reverse;
	}
	#criteria, #weights{
		transform-origin: 50% 50% !important;
		animation: rotate 8s infinite  ease-in-out alternate;
	}
 	@keyframes rotate { 
       	0% {transform: rotate(3deg) translate(-5px, 0px);}
		100% {transform: rotate(-10deg) translate(5px, -5px);}

</style>
<g id="bowl">
	<g>
		
			<radialGradient id="SVGID_1_" cx="256.3611" cy="-2604.4128" r="259.9142" gradientTransform="matrix(1 -3.124807e-04 2.327334e-04 0.2529 0.6062 1092.901)" gradientUnits="userSpaceOnUse">
			<stop offset="8.664154e-03" style="stop-color:#87BEFC"/>
			<stop offset="1" style="stop-color:#FFFFFF;stop-opacity:0"/>
		</radialGradient>
		<ellipse class="st0" cx="251.9" cy="423.8" rx="221.9" ry="44"/>
		<g>
			<g>
				<ellipse class="st1" cx="250.1" cy="427.7" rx="72.5" ry="11.5"/>
				
					<linearGradient id="SVGID_00000176739804768505195110000007069672105865999242_" gradientUnits="userSpaceOnUse" x1="411.0583" y1="341.8629" x2="110.4904" y2="359.5433">
					<stop offset="0" style="stop-color:#87BEFC"/>
					<stop offset="0.2249" style="stop-color:#A4CEFD"/>
					<stop offset="0.6387" style="stop-color:#E1EFFE"/>
					<stop offset="1" style="stop-color:#9DCAFD"/>
				</linearGradient>
				<path style="fill:url(#SVGID_00000176739804768505195110000007069672105865999242_);" d="M424.6,295.1      c1.3,62.3-52.5,116.5-118.4,133.6c-32.8,4.9-95.7,7.4-127.1-4.7c-61.2-22-103.8-71.3-103.4-128.8      C74.3,263.9,426,263.9,424.6,295.1z"/>
			</g>
			
				<linearGradient id="SVGID_00000036959473787264821850000002910127574747831948_" gradientUnits="userSpaceOnUse" x1="77.9656" y1="299.0735" x2="422.2757" y2="299.0735">
				<stop offset="0" style="stop-color:#4285F4"/>
				<stop offset="0.1898" style="stop-color:#609DF8"/>
				<stop offset="0.4667" style="stop-color:#87BCFD"/>
				<stop offset="0.6116" style="stop-color:#96C8FF"/>
				<stop offset="0.7471" style="stop-color:#93C5FF"/>
				<stop offset="0.8526" style="stop-color:#89BEFD"/>
				<stop offset="0.9477" style="stop-color:#79B0FB"/>
				<stop offset="1" style="stop-color:#6CA6F9"/>
			</linearGradient>
			<path style="fill:url(#SVGID_00000036959473787264821850000002910127574747831948_);" d="M422.3,299.1c0,0.3,0,0.6-0.1,0.8     c-0.9,3.7-7.4,7.1-18.3,10.2c-21.6,6.1-60.3,10.7-107.2,12.5c-14.8,0.6-30.4,0.9-46.5,0.9c-14.5,0-28.7-0.3-42.2-0.7     c-48.8-1.8-89.3-6.5-111.6-12.7c-11-3.1-17.5-6.5-18.3-10.2c-0.1-0.3-0.1-0.6-0.1-0.8c0-0.3,0-0.5,0.1-0.8     c2.7-11.6,61.8-21.1,139.4-23.2c10.6-0.3,21.5-0.4,32.6-0.4c50.8,0,96.4,3.1,127.9,8.1c26.3,4.2,42.8,9.6,44.2,15.6     C422.2,298.5,422.3,298.8,422.3,299.1z"/>
			<path class="st4" d="M403.8,310.1c-21.6,6.1-60.3,10.7-107.2,12.5c-14.8,0.6-30.4,0.9-46.5,0.9c-14.5,0-28.7-0.3-42.2-0.7     c-48.8-1.8-89.3-6.5-111.6-12.7c23.7-6.7,68-11.6,121.1-13c10.6-0.3,21.5-0.4,32.6-0.4c50.8,0,96.4,3.1,127.9,8.1     C388.2,306.3,396.9,308.1,403.8,310.1z"/>
			<g>
				
					<linearGradient id="SVGID_00000030446293556399738790000001610175924913098114_" gradientUnits="userSpaceOnUse" x1="3060.0107" y1="7271.5884" x2="3377.9958" y2="7271.5884" gradientTransform="matrix(-0.8018 -0.5976 0.5976 -0.8018 -1584.5936 8039.3423)">
					<stop offset="0" style="stop-color:#4285F4"/>
					<stop offset="0.1898" style="stop-color:#609DF8"/>
					<stop offset="0.4667" style="stop-color:#87BCFD"/>
					<stop offset="0.6116" style="stop-color:#96C8FF"/>
					<stop offset="0.7471" style="stop-color:#93C5FF"/>
					<stop offset="0.8526" style="stop-color:#89BEFD"/>
					<stop offset="0.9477" style="stop-color:#79B0FB"/>
					<stop offset="1" style="stop-color:#6CA6F9"/>
				</linearGradient>
				<path style="fill:url(#SVGID_00000030446293556399738790000001610175924913098114_);" d="M51.3,199.3l157.6,113.8h17.6      L60.9,186.5c-1.8-1.4-4.5-1-5.9,0.8l-4.6,6.1C49,195.3,49.4,198,51.3,199.3z"/>
			</g>
			
				<linearGradient id="SVGID_00000011749721562694644860000001496642774461127053_" gradientUnits="userSpaceOnUse" x1="2708.6074" y1="7528.645" x2="3026.6772" y2="7528.645" gradientTransform="matrix(-0.8644 -0.5028 0.5028 -0.8644 -1139.9562 8252.1865)">
				<stop offset="0" style="stop-color:#4285F4"/>
				<stop offset="0.1898" style="stop-color:#609DF8"/>
				<stop offset="0.4667" style="stop-color:#87BCFD"/>
				<stop offset="0.6116" style="stop-color:#96C8FF"/>
				<stop offset="0.7471" style="stop-color:#93C5FF"/>
				<stop offset="0.8526" style="stop-color:#89BEFD"/>
				<stop offset="0.9477" style="stop-color:#79B0FB"/>
				<stop offset="1" style="stop-color:#6CA6F9"/>
			</linearGradient>
			<path style="fill:url(#SVGID_00000011749721562694644860000001496642774461127053_);" d="M28.4,231.6l145.2,81.6     c0,2.3,22.3,2.3,22.3,0L36.4,217.7c-2-1.2-4.6-0.5-5.7,1.5l-3.9,6.6C25.7,227.9,26.4,230.4,28.4,231.6z"/>
			<path class="st4" d="M311.5,321.7H200.5v-9.6c36.3,2.7,87.7,0.6,125.3-2L311.5,321.7z"/>
		</g>
	</g>
</g>
<g id="criteria">
	<g>
		
			<linearGradient id="SVGID_00000054258534561207524120000013084419867525658017_" gradientUnits="userSpaceOnUse" x1="316.6328" y1="162.1159" x2="93.5864" y2="24.8566">
			<stop offset="8.664154e-03" style="stop-color:#87BEFC"/>
			<stop offset="1" style="stop-color:#FFFFFF"/>
		</linearGradient>
		<path style="fill:url(#SVGID_00000054258534561207524120000013084419867525658017_);" d="M171.4,33.7l159.7,85.5    c6,3.2,8.2,10.6,5,16.6l-25,46.8c-3.2,6-10.6,8.2-16.6,5l-159.7-85.5c-6-3.2-8.2-10.6-5-16.6l25-46.8    C158,32.7,165.4,30.5,171.4,33.7z"/>
		<g>
			
				<linearGradient id="SVGID_00000181084087979796830550000007731513285083087750_" gradientUnits="userSpaceOnUse" x1="306.2347" y1="148.9566" x2="100.5331" y2="22.3709">
				<stop offset="8.664154e-03" style="stop-color:#87BEFC"/>
				<stop offset="1" style="stop-color:#FFFFFF"/>
			</linearGradient>
			<path style="fill:url(#SVGID_00000181084087979796830550000007731513285083087750_);" d="M129.7,85.5l25-46.8     c3.2-6,10.6-8.2,16.6-5l159.7,85.5"/>
			<path class="st9" d="M129.7,85.5c4.9-9.4,17.3-33,22.2-42c1.2-2.1,2.5-5.1,4-6.9c3.4-4.3,9.7-5.9,14.7-3.6     c40.1,21,92.7,49.6,132.7,71.1c0,0,27.8,15.2,27.8,15.2l-28.1-14.7C262.9,83.1,210.2,55,170.3,33.5c-4.8-2.1-10.7-0.7-14,3.4     c-1.4,1.7-2.8,4.8-3.9,6.8C147.6,52.6,134.7,76.3,129.7,85.5L129.7,85.5z"/>
		</g>
		<g>
			<g>
				<path class="st10" d="M208.6,105.9c-0.8,0-1.6-0.2-2.3-0.4c-0.7-0.2-1.4-0.5-2.2-0.9c-2-1.1-3.3-2.5-3.8-4.3      c-0.5-1.8-0.2-3.7,0.9-5.7c1.1-2.1,2.6-3.4,4.6-4c1.9-0.6,3.9-0.4,5.9,0.7c0.7,0.4,1.2,0.7,1.7,1.1s1,0.9,1.4,1.4l-1.7,1.4      c-0.4-0.4-0.7-0.8-1.1-1.1c-0.4-0.3-0.8-0.6-1.3-0.9c-1.3-0.7-2.6-0.8-3.9-0.4c-1.3,0.4-2.4,1.4-3.2,2.9c-0.8,1.5-1,2.8-0.7,4.1      c0.3,1.3,1.1,2.2,2.5,2.9c0.4,0.2,0.9,0.4,1.5,0.6s1.1,0.2,1.8,0.2L208.6,105.9z"/>
				<path class="st10" d="M219.8,102.8c-0.1-0.1-0.2-0.2-0.3-0.3s-0.2-0.2-0.4-0.2c-0.8-0.4-1.5-0.4-2.2-0.1c-0.7,0.4-1.3,1-1.8,1.9      l-2.5,4.7l-2.2-1.2l5.1-9.5l2.2,1.2l-1,1.8l0,0c0.6-0.5,1.2-0.9,1.8-1c0.6-0.1,1.2,0,1.8,0.3c0.2,0.1,0.3,0.2,0.4,0.3      c0.1,0.1,0.2,0.2,0.4,0.3L219.8,102.8z"/>
				<path class="st10" d="M219.7,112.8l-2.2-1.2l5.1-9.5l2.2,1.2L219.7,112.8z M224.6,101c-0.4-0.2-0.7-0.5-0.8-0.9      c-0.1-0.4-0.1-0.8,0.1-1.1c0.2-0.4,0.5-0.6,0.9-0.7c0.4-0.1,0.8-0.1,1.2,0.2s0.7,0.5,0.8,0.9c0.1,0.4,0.1,0.8-0.1,1.1      c-0.2,0.4-0.5,0.6-0.9,0.7C225.4,101.2,225,101.2,224.6,101z"/>
				<path class="st10" d="M228,117c-0.3,0-0.7-0.1-1-0.2c-0.3-0.1-0.7-0.3-1-0.4c-0.9-0.5-1.5-1.1-1.7-1.8c-0.2-0.7-0.1-1.6,0.4-2.5      l2.8-5.3L226,106l0.9-1.7l1.6,0.9l1.2-2.2l2.5,0.5l-1.5,2.8l2.3,1.2l-0.9,1.7l-2.3-1.2l-2.7,5.1c-0.3,0.5-0.3,0.9-0.3,1.2      c0.1,0.3,0.3,0.5,0.6,0.7c0.2,0.1,0.4,0.2,0.5,0.2c0.2,0,0.3,0.1,0.5,0.1L228,117z"/>
				<path class="st10" d="M240.2,118.3l-6.5-3.5c-0.4,0.9-0.5,1.8-0.3,2.5c0.2,0.7,0.8,1.3,1.7,1.8c0.3,0.2,0.8,0.3,1.3,0.4      s1.1,0.1,1.7,0l0.2,1.9c-0.8,0.1-1.6,0.1-2.3,0s-1.4-0.4-2.2-0.8c-1.5-0.8-2.4-1.8-2.8-3.1c-0.4-1.3-0.1-2.7,0.7-4.3      c0.8-1.5,1.9-2.5,3.3-3c1.4-0.5,2.7-0.4,4,0.3c1.3,0.7,2.1,1.6,2.4,2.8c0.3,1.2,0.1,2.5-0.7,4L240.2,118.3z M238.9,115.7      c0.4-0.8,0.6-1.5,0.4-2.2c-0.1-0.6-0.5-1.1-1.2-1.4c-0.6-0.3-1.3-0.4-1.9-0.2c-0.7,0.2-1.3,0.7-1.8,1.4L238.9,115.7z"/>
				<path class="st10" d="M249.5,118.8c-0.1-0.1-0.2-0.2-0.3-0.3s-0.2-0.2-0.4-0.2c-0.8-0.4-1.5-0.4-2.2-0.1c-0.7,0.4-1.3,1-1.8,1.9      l-2.5,4.7l-2.2-1.2l5.1-9.6l2.2,1.2l-1,1.8l0,0c0.6-0.5,1.2-0.9,1.8-1c0.6-0.1,1.2,0,1.8,0.3c0.2,0.1,0.3,0.2,0.4,0.3      c0.1,0.1,0.2,0.2,0.4,0.3L249.5,118.8z"/>
				<path class="st10" d="M249.5,128.7l-2.2-1.2l5.1-9.6l2.2,1.2L249.5,128.7z M254.4,116.9c-0.4-0.2-0.7-0.5-0.8-0.9      s-0.1-0.8,0.1-1.1c0.2-0.4,0.5-0.6,0.9-0.7s0.8-0.1,1.2,0.2s0.7,0.5,0.8,0.9c0.1,0.4,0.1,0.8-0.1,1.1c-0.2,0.4-0.5,0.6-0.9,0.7      C255.2,117.2,254.8,117.1,254.4,116.9z"/>
				<path class="st10" d="M259.8,134.2l-2.1-1.1l0.8-1.4l0,0c-0.6,0.4-1.2,0.6-1.9,0.6c-0.6,0-1.3-0.1-1.9-0.5      c-0.9-0.5-1.5-1.1-1.8-1.9c-0.3-0.8-0.2-1.7,0.3-2.5c0.5-0.9,1.1-1.4,2-1.6s1.9-0.1,3.1,0.3l2.7,1l0.1-0.2      c0.3-0.6,0.4-1.2,0.2-1.7c-0.2-0.5-0.6-0.9-1.1-1.2c-0.5-0.2-1-0.4-1.5-0.5c-0.6-0.1-1.2-0.1-1.8,0l-0.2-1.8      c0.8-0.1,1.6-0.1,2.3,0c0.7,0.1,1.5,0.4,2.2,0.8c1.3,0.7,2,1.5,2.3,2.5c0.3,1,0.1,2.1-0.6,3.4L259.8,134.2z M259.8,129.2      l0.4-0.8l-2.2-0.8c-0.7-0.2-1.2-0.3-1.6-0.2c-0.4,0.1-0.8,0.4-1,0.8c-0.2,0.5-0.3,0.9-0.2,1.3c0.1,0.4,0.4,0.7,0.9,1      c0.7,0.4,1.4,0.4,2.1,0.2C258.9,130.4,259.5,130,259.8,129.2z"/>
			</g>
		</g>
	</g>
</g>
<g id="alternatives">
	<g>
		
			<linearGradient id="SVGID_00000142882482408116265280000015063556458758538917_" gradientUnits="userSpaceOnUse" x1="211.7954" y1="221.5307" x2="390.7227" y2="102.6543">
			<stop offset="8.664154e-03" style="stop-color:#87BEFC"/>
			<stop offset="1" style="stop-color:#FFFFFF"/>
		</linearGradient>
		<path style="fill:url(#SVGID_00000142882482408116265280000015063556458758538917_);" d="M175.8,174.4l170.4-61.6    c6.4-2.3,13.4,1,15.7,7.4L380,170c2.3,6.4-1,13.4-7.4,15.7l-170.4,61.6c-6.4,2.3-13.4-1-15.7-7.4l-18.1-49.9    C166.1,183.7,169.4,176.7,175.8,174.4z"/>
		<g>
			
				<linearGradient id="SVGID_00000059273353120339733800000010078818166111676814_" gradientUnits="userSpaceOnUse" x1="209.469" y1="177.8048" x2="357.2154" y2="79.6445">
				<stop offset="8.664154e-03" style="stop-color:#87BEFC"/>
				<stop offset="1" style="stop-color:#FFFFFF"/>
			</linearGradient>
			
				<line style="fill:url(#SVGID_00000059273353120339733800000010078818166111676814_);" x1="175.8" y1="174.4" x2="346.2" y2="112.8"/>
			<path class="st9" d="M175.8,174.4c54.3-20.4,115.6-42.5,170.4-61.6C291.8,133.1,230.6,155.2,175.8,174.4L175.8,174.4z"/>
		</g>
		<g>
			<g>
				<path class="st10" d="M220.7,205.6l0.2-15.8l2.7-1l10.2,12.1l-2.6,0.9l-2.4-2.9l-5.6,2l0.1,3.7L220.7,205.6z M223.2,198.7      l4.3-1.6l-3.9-4.8c-0.1-0.1-0.2-0.3-0.3-0.4c-0.1-0.1-0.2-0.3-0.3-0.5l-0.1,0c0,0.2,0.1,0.4,0.1,0.5c0,0.2,0,0.3,0,0.5      L223.2,198.7z"/>
				<path class="st10" d="M235.6,200.2l-5.3-14.7l2.3-0.8l5.3,14.7L235.6,200.2z"/>
				<path class="st10" d="M246.6,196.1c-0.2,0.2-0.5,0.4-0.8,0.6c-0.3,0.2-0.6,0.3-1,0.5c-1,0.3-1.8,0.4-2.5,0s-1.2-1-1.6-2l-2-5.6      l-1.7,0.6l-0.6-1.8l1.7-0.6l-0.8-2.3l2.1-1.5l1.1,3l2.4-0.9l0.6,1.8l-2.4,0.9l2,5.4c0.2,0.5,0.4,0.8,0.7,1c0.3,0.2,0.6,0.2,1,0      c0.2-0.1,0.4-0.2,0.5-0.3c0.2-0.1,0.3-0.2,0.4-0.3L246.6,196.1z"/>
				<path class="st10" d="M255.6,187.9l-7,2.5c0.4,0.9,0.9,1.6,1.6,1.9c0.7,0.3,1.5,0.3,2.5,0c0.4-0.1,0.8-0.4,1.2-0.7      c0.4-0.3,0.8-0.8,1.2-1.3l1.6,1.1c-0.5,0.7-1,1.2-1.6,1.7s-1.3,0.8-2,1.1c-1.6,0.6-3,0.6-4.2,0c-1.2-0.6-2.1-1.7-2.7-3.4      c-0.6-1.6-0.6-3.1-0.1-4.5s1.5-2.3,3-2.8c1.4-0.5,2.6-0.5,3.7,0.1c1.1,0.6,1.9,1.6,2.5,3.2L255.6,187.9z M252.8,187.1      c-0.3-0.9-0.8-1.5-1.3-1.8c-0.5-0.3-1.2-0.3-1.9-0.1c-0.7,0.2-1.1,0.7-1.4,1.3c-0.3,0.6-0.3,1.4-0.1,2.2L252.8,187.1z"/>
				<path class="st10" d="M262.2,181.2c-0.1,0-0.3,0-0.4,0.1c-0.1,0-0.3,0.1-0.4,0.1c-0.8,0.3-1.3,0.8-1.5,1.6      c-0.2,0.8-0.2,1.7,0.2,2.6l1.8,5l-2.3,0.8l-3.7-10.2l2.3-0.8l0.7,2l0,0c0-0.8,0.1-1.4,0.5-2c0.3-0.5,0.8-0.9,1.5-1.1      c0.2-0.1,0.3-0.1,0.5-0.1c0.2,0,0.3-0.1,0.5-0.1L262.2,181.2z"/>
				<path class="st10" d="M276.3,185.5l-2.3,0.8l-2.1-5.7c-0.3-0.9-0.8-1.6-1.3-1.9s-1.1-0.4-1.8-0.2c-0.7,0.3-1.2,0.7-1.4,1.4      s-0.2,1.4,0,2.2l2.1,5.8l-2.3,0.8l-3.7-10.2l2.3-0.8l0.6,1.7l0,0c0.1-0.8,0.4-1.4,0.9-1.9s1-0.9,1.7-1.2      c1.1-0.4,2.1-0.4,2.9,0.1c0.8,0.5,1.5,1.4,2,2.8L276.3,185.5z"/>
				<path class="st10" d="M287.1,181.6l-2.2,0.8l-0.6-1.5l0,0c-0.1,0.7-0.4,1.3-0.8,1.8c-0.4,0.5-0.9,0.9-1.6,1.1      c-0.9,0.3-1.8,0.3-2.6,0c-0.8-0.3-1.4-1-1.7-1.9c-0.3-0.9-0.3-1.8,0.1-2.6c0.4-0.8,1.2-1.5,2.3-2.1l2.6-1.3l-0.1-0.2      c-0.2-0.7-0.6-1.1-1.1-1.3c-0.5-0.2-1-0.2-1.6,0.1c-0.5,0.2-0.9,0.4-1.4,0.8c-0.4,0.4-0.8,0.8-1.2,1.3l-1.5-1      c0.4-0.7,1-1.3,1.5-1.7c0.6-0.5,1.3-0.8,2.1-1.1c1.4-0.5,2.5-0.5,3.4-0.1c0.9,0.4,1.6,1.3,2.1,2.7L287.1,181.6z M283.3,178.2      l-0.3-0.9l-2.1,1.1c-0.6,0.3-1,0.7-1.3,1c-0.2,0.4-0.2,0.8-0.1,1.3c0.2,0.5,0.5,0.8,0.9,1c0.4,0.2,0.8,0.2,1.3,0      c0.7-0.3,1.3-0.7,1.5-1.4C283.6,179.7,283.6,179,283.3,178.2z"/>
				<path class="st10" d="M295.5,178.4c-0.2,0.2-0.5,0.4-0.8,0.6s-0.6,0.3-1,0.5c-1,0.3-1.8,0.4-2.5,0c-0.7-0.3-1.2-1-1.6-2l-2-5.6      l-1.7,0.6l-0.7-1.8l1.7-0.6l-0.8-2.3l2.1-1.5l1.1,3l2.4-0.9l0.7,1.8L290,171l2,5.4c0.2,0.5,0.4,0.8,0.7,1s0.6,0.2,1,0      c0.2-0.1,0.4-0.2,0.5-0.3c0.2-0.1,0.3-0.2,0.4-0.3L295.5,178.4z"/>
				<path class="st10" d="M294.4,165.4c-0.4,0.2-0.8,0.1-1.2,0s-0.6-0.4-0.8-0.8c-0.1-0.4-0.1-0.8,0.1-1.1c0.2-0.4,0.5-0.6,0.9-0.8      s0.8-0.1,1.2,0s0.6,0.4,0.8,0.8c0.1,0.4,0.1,0.8-0.1,1.1C295.1,165,294.8,165.2,294.4,165.4z M299.9,176.9l-2.3,0.8l-3.7-10.2      l2.3-0.8L299.9,176.9z"/>
				<path class="st10" d="M308.2,162.4L308,174l-2.5,0.9l-7.4-8.8l2.5-0.9l4.7,6.1c0.2,0.3,0.4,0.5,0.5,0.8c0.2,0.2,0.3,0.5,0.4,0.7      l0,0c-0.1-0.3-0.1-0.5-0.1-0.8c0-0.3-0.1-0.6-0.1-0.9l-0.2-7.8L308.2,162.4z"/>
				<path class="st10" d="M320.6,164.4l-7,2.5c0.4,0.9,0.9,1.6,1.6,1.9c0.7,0.3,1.5,0.3,2.5,0c0.4-0.1,0.8-0.4,1.2-0.7      c0.4-0.3,0.8-0.8,1.2-1.3l1.6,1.1c-0.5,0.7-1,1.2-1.6,1.7c-0.6,0.4-1.3,0.8-2,1.1c-1.6,0.6-3,0.6-4.2,0      c-1.2-0.6-2.1-1.7-2.7-3.4c-0.6-1.6-0.6-3.1-0.1-4.5s1.5-2.3,3-2.8c1.4-0.5,2.6-0.5,3.7,0.1c1.1,0.6,1.9,1.7,2.5,3.2      L320.6,164.4z M317.8,163.6c-0.3-0.9-0.8-1.5-1.3-1.8s-1.2-0.3-1.9-0.1c-0.7,0.2-1.1,0.7-1.4,1.3c-0.3,0.6-0.3,1.4-0.1,2.2      L317.8,163.6z"/>
				<path class="st10" d="M323.4,167.5l0.4-2c0.5,0.1,1,0.2,1.5,0.2c0.5,0,1-0.1,1.6-0.3c0.6-0.2,1-0.5,1.2-0.8      c0.2-0.3,0.3-0.7,0.1-1.1c-0.1-0.3-0.4-0.6-0.7-0.7c-0.3-0.1-0.9-0.1-1.5-0.1c-1.4,0.2-2.4,0.1-3.1-0.2      c-0.7-0.3-1.2-0.9-1.5-1.7c-0.3-0.9-0.2-1.8,0.3-2.7c0.5-0.8,1.4-1.5,2.5-1.9c0.6-0.2,1.1-0.3,1.7-0.4c0.6,0,1.2,0,1.8,0.2      l-0.3,1.9c-0.5-0.1-1-0.2-1.4-0.2c-0.4,0-0.8,0.1-1.2,0.2c-0.5,0.2-0.9,0.5-1.2,0.8c-0.2,0.3-0.3,0.7-0.1,1      c0.1,0.4,0.4,0.6,0.7,0.7c0.4,0.1,0.9,0.1,1.7,0c1.2-0.1,2.2,0,2.8,0.3c0.7,0.3,1.2,0.9,1.5,1.7c0.4,1,0.3,1.9-0.2,2.7      s-1.4,1.5-2.6,1.9c-0.7,0.2-1.3,0.4-2,0.4C324.7,167.7,324,167.7,323.4,167.5z"/>
			</g>
		</g>
	</g>
</g>
<g id="weights">
	<g>
		
			<linearGradient id="SVGID_00000138564004446776114920000002619880816240770199_" gradientUnits="userSpaceOnUse" x1="240.019" y1="272.967" x2="72.1215" y2="154.0907">
			<stop offset="8.664154e-03" style="stop-color:#87BEFC"/>
			<stop offset="1" style="stop-color:#FFFFFF"/>
		</linearGradient>
		<path style="fill:url(#SVGID_00000138564004446776114920000002619880816240770199_);" d="M127.3,167.2l164.8,75.2    c6.2,2.8,8.9,10.1,6.1,16.3l-22,48.3c-2.8,6.2-10.1,8.9-16.3,6.1L95.1,237.8c-6.2-2.8-8.9-10.1-6.1-16.3l22-48.3    C113.8,167.1,121.1,164.4,127.3,167.2z"/>
		<g>
			<path class="st9" d="M89,221.5c3.9-8.8,11.7-26.6,15.7-35.4c0,0,4-8.8,4-8.8s2-4.4,2-4.4c2.1-4.6,7.1-7.6,12.2-7.3     c3,0,6.6,2.1,9.2,3.2c11.6,5.3,41.5,19.1,52.7,24.3c0,0,17.5,8.3,17.5,8.3l-17.7-7.8c-11.2-4.9-41.4-18.6-52.9-23.9     c0,0-4.4-2-4.4-2c-4.2-2.1-9.6-1.3-13,1.9c-2.2,1.7-3.6,5.6-4.8,8.1c0,0-4.1,8.8-4.1,8.8C101.4,195.2,93.1,212.8,89,221.5     L89,221.5z"/>
		</g>
		<g>
			<g>
				<path class="st10" d="M178.6,223.4l-9.8,11.8l-2.6-1.2l1.7-10.4c0-0.2,0.1-0.5,0.2-0.8c0.1-0.3,0.2-0.5,0.3-0.8l0,0      c-0.1,0.3-0.3,0.5-0.4,0.7c-0.1,0.2-0.3,0.4-0.5,0.6l-6.8,8.1l-2.6-1.2l2.4-15.2l2.5,1.1l-2,10.8c0,0.2-0.1,0.5-0.2,0.7      c-0.1,0.3-0.2,0.5-0.3,0.8l0,0c0.1-0.2,0.2-0.4,0.4-0.6c0.2-0.2,0.3-0.5,0.5-0.7l7.1-8.4l2.4,1.1l-1.9,10.9      c0,0.2-0.1,0.4-0.2,0.7c-0.1,0.2-0.2,0.5-0.2,0.8l0,0c0.1-0.2,0.2-0.4,0.4-0.6c0.1-0.2,0.3-0.4,0.5-0.7l6.7-8.6L178.6,223.4z"/>
				<path class="st10" d="M184.6,237.1l-6.7-3.1c-0.4,1-0.4,1.8-0.2,2.5c0.3,0.7,0.9,1.3,1.8,1.7c0.4,0.2,0.8,0.3,1.3,0.3      s1.1,0,1.7-0.1l0.4,1.9c-0.8,0.2-1.6,0.2-2.3,0.1c-0.7-0.1-1.5-0.3-2.2-0.7c-1.5-0.7-2.5-1.7-3-3c-0.4-1.3-0.3-2.7,0.4-4.3      c0.7-1.6,1.7-2.7,3.1-3.2c1.3-0.6,2.7-0.5,4.1,0.1c1.3,0.6,2.2,1.5,2.6,2.7c0.4,1.2,0.2,2.5-0.5,4L184.6,237.1z M183.2,234.6      c0.4-0.8,0.5-1.6,0.3-2.2c-0.2-0.6-0.6-1.1-1.3-1.4c-0.6-0.3-1.3-0.3-1.9,0c-0.7,0.3-1.2,0.8-1.7,1.5L183.2,234.6z"/>
				<path class="st10" d="M187.1,243.5l-2.2-1l4.5-9.9l2.2,1L187.1,243.5z M191.3,231.4c-0.4-0.2-0.7-0.5-0.8-0.8      c-0.1-0.4-0.1-0.8,0-1.1c0.2-0.4,0.5-0.7,0.8-0.8c0.4-0.1,0.8-0.1,1.2,0.1c0.4,0.2,0.7,0.5,0.8,0.8c0.2,0.4,0.1,0.8,0,1.2      c-0.2,0.4-0.5,0.6-0.8,0.8C192.1,231.7,191.7,231.6,191.3,231.4z"/>
				<path class="st10" d="M199.7,248.1c-0.8,1.7-1.9,2.8-3.2,3.4c-1.4,0.5-3,0.4-4.7-0.4c-0.7-0.3-1.3-0.7-1.8-1.1      c-0.5-0.4-1-0.9-1.5-1.5l1.4-1.3c0.4,0.5,0.8,0.9,1.2,1.2c0.4,0.3,0.9,0.6,1.5,0.9c1,0.5,1.9,0.5,2.8,0.2c0.8-0.3,1.5-1,2-2.1      l0.4-0.9l0,0c-0.6,0.4-1.3,0.7-2,0.7c-0.7,0-1.4-0.1-2.1-0.4c-1.2-0.6-2-1.5-2.4-2.7c-0.3-1.2-0.2-2.6,0.5-4      c0.7-1.6,1.8-2.8,3-3.4c1.3-0.6,2.6-0.6,3.9,0c0.6,0.3,1.1,0.7,1.5,1.1c0.4,0.5,0.6,1,0.7,1.7l0,0l0.6-1.3l2.2,1L199.7,248.1z       M199.1,243.5l0.5-1.2c0.3-0.7,0.4-1.4,0.2-2.1c-0.2-0.7-0.7-1.2-1.4-1.5c-0.8-0.4-1.6-0.4-2.4,0s-1.4,1.2-1.9,2.3      c-0.5,1-0.6,1.9-0.4,2.7c0.2,0.8,0.7,1.3,1.5,1.7c0.8,0.4,1.5,0.4,2.3,0C198.1,245,198.7,244.4,199.1,243.5z"/>
				<path class="st10" d="M211,254.4l-2.2-1l2.6-5.6c0.4-0.9,0.6-1.6,0.4-2.2c-0.1-0.6-0.5-1-1.2-1.3s-1.3-0.3-2,0      c-0.7,0.3-1.2,0.9-1.6,1.7l-2.6,5.6l-2.2-1l6.5-14.2l2.2,1l-2.7,5.9l0,0c0.7-0.4,1.3-0.7,2-0.7c0.7-0.1,1.3,0.1,2,0.4      c1.1,0.5,1.8,1.2,2,2.2c0.2,0.9,0.1,2.1-0.5,3.4L211,254.4z"/>
				<path class="st10" d="M219.3,258c-0.3,0-0.7,0-1-0.1c-0.3-0.1-0.7-0.2-1-0.4c-0.9-0.4-1.5-1-1.8-1.7c-0.3-0.7-0.2-1.5,0.2-2.5      l2.5-5.4l-1.6-0.8l0.8-1.7l1.6,0.8l1-2.2l2.5,0.3l-1.3,2.9l2.4,1.1l-0.8,1.7l-2.4-1.1l-2.4,5.2c-0.2,0.5-0.3,0.9-0.2,1.2      c0.1,0.3,0.3,0.5,0.7,0.7c0.2,0.1,0.4,0.1,0.5,0.2c0.2,0,0.4,0,0.5,0L219.3,258z"/>
				<path class="st10" d="M220.6,257.9l1.7-1.1c0.3,0.4,0.6,0.8,0.9,1.2c0.4,0.4,0.8,0.7,1.3,0.9c0.6,0.2,1,0.3,1.4,0.3      c0.4-0.1,0.7-0.3,0.9-0.7c0.1-0.3,0.1-0.7,0-1c-0.2-0.3-0.5-0.7-1-1.1c-1.1-0.8-1.8-1.6-2.1-2.3c-0.3-0.7-0.2-1.4,0.1-2.2      c0.4-0.9,1.1-1.5,2.1-1.7c1-0.2,2-0.1,3.1,0.4c0.6,0.3,1,0.6,1.5,0.9c0.4,0.4,0.8,0.8,1.2,1.3l-1.6,1.1      c-0.3-0.5-0.6-0.8-0.9-1.1c-0.3-0.3-0.6-0.5-1-0.7c-0.5-0.2-1-0.3-1.4-0.3c-0.4,0.1-0.7,0.3-0.8,0.6c-0.2,0.4-0.1,0.7,0.1,1      c0.2,0.3,0.6,0.7,1.3,1.2c1,0.7,1.6,1.5,1.8,2.2c0.3,0.7,0.2,1.5-0.1,2.3c-0.4,0.9-1.1,1.5-2.1,1.8s-2,0.1-3.2-0.4      c-0.6-0.3-1.2-0.7-1.7-1.1C221.4,258.9,221,258.4,220.6,257.9z"/>
			</g>
		</g>
	</g>
</g>
<g id="agents">
	<g>
		
			<linearGradient id="SVGID_00000129914170129373367930000005955199757511700405_" gradientUnits="userSpaceOnUse" x1="245.1269" y1="327.2542" x2="406.8968" y2="176.5141">
			<stop offset="8.664154e-03" style="stop-color:#87BEFC"/>
			<stop offset="1" style="stop-color:#FFFFFF"/>
		</linearGradient>
		<path style="fill:url(#SVGID_00000129914170129373367930000005955199757511700405_);" d="M401.5,268.1l-20.7,10.2l-81.4,40    c-14.8,0.6-30.4,0.9-46.5,0.9c-14.5,0-28.7-0.3-42.2-0.7l-11.6-23.7c-3-6.1-0.5-13.4,5.6-16.4l15.6-7.6l147-72.2    c6.1-3,13.4-0.5,16.4,5.6l23.4,47.6C410.1,257.8,407.6,265.2,401.5,268.1z"/>
		<g>
			
				<linearGradient id="SVGID_00000003100008679666104660000005230082750431558818_" gradientUnits="userSpaceOnUse" x1="221.549" y1="302.1512" x2="382.1679" y2="152.4836">
				<stop offset="8.664154e-03" style="stop-color:#87BEFC"/>
				<stop offset="1" style="stop-color:#FFFFFF"/>
			</linearGradient>
			<path style="fill:url(#SVGID_00000003100008679666104660000005230082750431558818_);" d="M210.7,318.5l-11.6-23.7     c-3-6.1-0.5-13.4,5.6-16.4l15.6-7.6l147-72.2c3-1.5,6.4-1.6,9.4-0.6"/>
			<path class="st9" d="M210.7,318.5c-2.2-4.4-7.8-15.5-9.9-19.8c0,0-1.7-3.3-1.7-3.3c-2.5-4.4-1.9-10.3,1.4-14.1     c2.3-2.9,6.3-4.2,9.4-5.9c46.3-22.9,106.3-52.4,152.7-74.7c0,0,3.3-1.6,3.3-1.6c3.2-1.8,7.2-2.5,10.7-1.2     c-3.6-1.2-7.4-0.6-10.6,1.3c0,0-3.3,1.7-3.3,1.7c-46,23.1-106.1,52.6-152.5,75.1c-3.1,1.6-7,2.9-9.3,5.6     c-3.2,3.7-3.8,9.3-1.5,13.6c0,0,1.6,3.3,1.6,3.3C203.2,302.8,208.6,314,210.7,318.5L210.7,318.5z"/>
		</g>
		<g>
			<g>
				<path class="st10" d="M233.3,314l-6.5-13.3l4.2-2.1c2.4-1.2,4.4-1.5,6.1-1c1.7,0.5,3.1,1.8,4.1,4c1,2.1,1.2,4,0.5,5.9      s-2.1,3.3-4.3,4.4L233.3,314z M230,301.5l4.7,9.5l1.7-0.9c1.5-0.8,2.5-1.8,2.9-3c0.4-1.3,0.3-2.7-0.5-4.2      c-0.7-1.5-1.7-2.4-2.9-2.8c-1.2-0.4-2.6-0.2-4.2,0.6L230,301.5z"/>
				<path class="st10" d="M253.1,299l-6.6,3.3c0.5,0.9,1.1,1.5,1.8,1.7c0.7,0.2,1.5,0.1,2.4-0.3c0.4-0.2,0.7-0.4,1.1-0.8      c0.4-0.4,0.7-0.8,1-1.4l1.7,0.9c-0.4,0.7-0.9,1.4-1.4,1.9c-0.5,0.5-1.2,0.9-1.9,1.3c-1.5,0.7-2.9,0.9-4.2,0.4      c-1.3-0.5-2.3-1.5-3.1-3c-0.8-1.6-0.9-3-0.5-4.4c0.4-1.4,1.3-2.4,2.6-3.1c1.3-0.6,2.5-0.7,3.7-0.3c1.1,0.5,2.1,1.4,2.8,2.9      L253.1,299z M250.2,298.5c-0.4-0.8-0.9-1.4-1.5-1.6c-0.6-0.2-1.2-0.2-1.9,0.1c-0.6,0.3-1.1,0.8-1.3,1.5      c-0.2,0.7-0.2,1.4,0.1,2.2L250.2,298.5z"/>
				<path class="st10" d="M264.4,298c-0.3,0.5-0.7,1-1.1,1.4c-0.4,0.4-0.9,0.7-1.5,1c-1.5,0.7-2.9,0.9-4.2,0.4      c-1.3-0.4-2.4-1.4-3.1-2.9c-0.8-1.6-1-3.1-0.5-4.6c0.5-1.4,1.5-2.5,3.1-3.3c0.5-0.3,1.1-0.5,1.6-0.6c0.5-0.1,1.1-0.1,1.6-0.1      l-0.1,2c-0.4,0-0.8,0-1.1,0.1s-0.7,0.2-1.1,0.4c-0.9,0.5-1.5,1.1-1.7,2s-0.1,1.8,0.4,2.8c0.5,1.1,1.2,1.7,2,2      c0.8,0.3,1.6,0.3,2.5-0.2c0.3-0.1,0.6-0.3,0.8-0.6c0.3-0.3,0.5-0.6,0.8-1L264.4,298z"/>
				<path class="st10" d="M262.3,285.6c-0.4,0.2-0.8,0.2-1.2,0.1c-0.4-0.1-0.7-0.4-0.9-0.7c-0.2-0.4-0.2-0.8-0.1-1.1      c0.1-0.4,0.4-0.7,0.8-0.9s0.8-0.2,1.2-0.1c0.4,0.1,0.7,0.4,0.9,0.8c0.2,0.4,0.2,0.8,0.1,1.1      C262.9,285.1,262.7,285.4,262.3,285.6z M269,296.5l-2.2,1.1l-4.8-9.7l2.2-1.1L269,296.5z"/>
				<path class="st10" d="M270.8,294.7l0.2-2c0.5,0.1,1,0.1,1.5,0c0.5,0,1-0.2,1.5-0.4c0.5-0.3,0.9-0.6,1.1-0.9      c0.2-0.3,0.2-0.7,0-1.1c-0.2-0.3-0.4-0.5-0.8-0.6c-0.4-0.1-0.9-0.1-1.5,0.1c-1.4,0.3-2.4,0.4-3.1,0.1c-0.7-0.2-1.3-0.7-1.6-1.5      c-0.4-0.9-0.4-1.8,0-2.7c0.4-0.9,1.2-1.6,2.3-2.2c0.5-0.3,1.1-0.5,1.7-0.6c0.6-0.1,1.2-0.1,1.8,0l-0.1,1.9c-0.5-0.1-1-0.1-1.4,0      s-0.8,0.2-1.1,0.4c-0.5,0.3-0.9,0.6-1.1,0.9c-0.2,0.3-0.2,0.7,0,1c0.2,0.4,0.4,0.5,0.8,0.6c0.4,0,0.9,0,1.7-0.2      c1.2-0.3,2.1-0.3,2.9,0c0.7,0.2,1.3,0.8,1.7,1.6c0.5,0.9,0.5,1.9,0.1,2.8c-0.4,0.9-1.2,1.6-2.4,2.2c-0.6,0.3-1.3,0.5-1.9,0.6      C272.1,294.7,271.5,294.7,270.8,294.7z"/>
				<path class="st10" d="M276.1,278.8c-0.4,0.2-0.8,0.2-1.2,0.1c-0.4-0.1-0.7-0.4-0.9-0.7c-0.2-0.4-0.2-0.8-0.1-1.1      c0.1-0.4,0.4-0.7,0.8-0.9c0.4-0.2,0.8-0.2,1.2-0.1c0.4,0.1,0.7,0.4,0.9,0.8c0.2,0.4,0.2,0.8,0.1,1.1      C276.8,278.3,276.5,278.6,276.1,278.8z M282.8,289.7l-2.2,1.1l-4.8-9.7l2.2-1.1L282.8,289.7z"/>
				<path class="st10" d="M290.3,286.3c-1.5,0.8-3,0.9-4.3,0.4c-1.3-0.5-2.4-1.5-3.1-3c-0.8-1.6-0.9-3.1-0.5-4.5      c0.5-1.4,1.5-2.4,3.1-3.2c1.5-0.8,2.9-0.9,4.2-0.4c1.3,0.5,2.3,1.5,3.1,3c0.8,1.6,0.9,3.1,0.5,4.4      C292.9,284.5,291.9,285.5,290.3,286.3z M289.6,284.5c0.9-0.4,1.4-1,1.6-1.8c0.2-0.8,0-1.7-0.5-2.8c-0.5-1.1-1.2-1.8-1.9-2.1      c-0.7-0.3-1.5-0.3-2.4,0.1c-0.9,0.4-1.4,1.1-1.6,1.9c-0.2,0.8,0,1.8,0.5,2.8c0.5,1.1,1.2,1.8,1.9,2.1      C287.9,285,288.7,284.9,289.6,284.5z"/>
				<path class="st10" d="M306.3,278.2l-2.2,1.1l-2.7-5.5c-0.4-0.9-0.9-1.5-1.5-1.8s-1.2-0.3-1.8,0c-0.7,0.3-1.1,0.8-1.3,1.6      s-0.1,1.5,0.3,2.2l2.7,5.6l-2.2,1.1l-4.8-9.7l2.2-1.1l0.8,1.6l0,0c0.1-0.8,0.3-1.4,0.7-2c0.4-0.6,0.9-1,1.6-1.4      c1.1-0.5,2-0.6,2.9-0.2c0.9,0.4,1.7,1.3,2.3,2.6L306.3,278.2z"/>
				<path class="st10" d="M306.8,272.4l-0.8-1.6l5.1-2.5l0.8,1.6L306.8,272.4z"/>
				<path class="st10" d="M331.4,265.8l-2.2,1.1l-2.7-5.6c-0.4-0.9-0.9-1.5-1.4-1.8c-0.5-0.3-1.1-0.2-1.8,0.1      c-0.6,0.3-1,0.8-1.1,1.5c-0.1,0.7,0,1.5,0.4,2.2l2.7,5.5l-2.2,1.1l-2.8-5.7c-0.4-0.8-0.9-1.4-1.4-1.6c-0.5-0.3-1.1-0.2-1.7,0.1      c-0.6,0.3-1,0.8-1.1,1.5s0,1.4,0.4,2.3l2.7,5.5l-2.2,1.1l-4.8-9.7l2.2-1.1l0.8,1.5l0,0c0.1-0.7,0.3-1.4,0.6-1.9      c0.4-0.6,0.9-1,1.6-1.3c0.7-0.3,1.3-0.4,2-0.3c0.6,0.1,1.2,0.4,1.7,0.9c0-0.8,0.3-1.5,0.7-2.1c0.4-0.6,0.9-1.1,1.7-1.4      c1.1-0.5,2-0.6,2.9-0.2c0.9,0.4,1.6,1.2,2.2,2.6L331.4,265.8z"/>
				<path class="st10" d="M341.7,260.8l-2.1,1l-0.7-1.5l0,0c-0.1,0.7-0.3,1.3-0.6,1.9s-0.8,0.9-1.5,1.3c-0.9,0.4-1.8,0.5-2.6,0.3      c-0.8-0.2-1.5-0.8-1.9-1.7c-0.4-0.9-0.5-1.7-0.2-2.6c0.3-0.8,1-1.6,2.1-2.3l2.4-1.6l-0.1-0.2c-0.3-0.7-0.7-1-1.2-1.2      c-0.5-0.1-1-0.1-1.6,0.2c-0.5,0.2-0.9,0.5-1.3,0.9s-0.7,0.9-1,1.4l-1.6-0.9c0.4-0.7,0.8-1.4,1.3-1.9c0.5-0.5,1.2-1,1.9-1.4      c1.3-0.6,2.4-0.8,3.4-0.5c1,0.3,1.7,1.1,2.4,2.4L341.7,260.8z M337.6,257.9l-0.4-0.8l-2,1.3c-0.6,0.4-1,0.8-1.1,1.2      c-0.2,0.4-0.2,0.8,0.1,1.3c0.2,0.5,0.5,0.8,1,0.9c0.4,0.1,0.9,0.1,1.3-0.2c0.7-0.3,1.2-0.9,1.4-1.6      C338,259.3,338,258.6,337.6,257.9z"/>
				<path class="st10" d="M353.3,255.1l-2.8,1.4l-6.1-2.9l0,0l2.3,4.7l-2.2,1.1l-6.9-14.1l2.2-1.1l4.3,8.8l0,0l1.3-6.2l2.7-1.3      l-1.8,6.6L353.3,255.1z"/>
				<path class="st10" d="M360.9,246l-6.6,3.3c0.5,0.9,1.1,1.5,1.8,1.7c0.7,0.2,1.5,0.1,2.4-0.3c0.4-0.2,0.7-0.4,1.1-0.8      c0.4-0.4,0.7-0.8,1-1.4l1.7,0.9c-0.4,0.7-0.9,1.4-1.4,1.9c-0.5,0.5-1.2,0.9-1.9,1.3c-1.5,0.7-2.9,0.9-4.2,0.4      c-1.3-0.5-2.3-1.5-3.1-3c-0.8-1.6-0.9-3-0.5-4.4s1.3-2.4,2.6-3.1c1.3-0.6,2.5-0.7,3.7-0.3c1.1,0.5,2.1,1.4,2.8,2.9L360.9,246z       M358.1,245.5c-0.4-0.8-0.9-1.4-1.5-1.6c-0.6-0.2-1.2-0.2-1.9,0.1c-0.6,0.3-1.1,0.8-1.3,1.5c-0.2,0.7-0.2,1.4,0.1,2.2      L358.1,245.5z"/>
				<path class="st10" d="M366.8,238.7c-0.1,0-0.3,0.1-0.4,0.1c-0.1,0-0.3,0.1-0.4,0.2c-0.8,0.4-1.2,1-1.4,1.8      c-0.1,0.8,0,1.7,0.5,2.6l2.4,4.8l-2.2,1.1l-4.8-9.7l2.2-1.1l0.9,1.9l0,0c-0.1-0.8,0-1.5,0.3-2c0.3-0.6,0.7-1,1.3-1.3      c0.2-0.1,0.3-0.1,0.5-0.2c0.2-0.1,0.3-0.1,0.4-0.1L366.8,238.7z"/>
				<path class="st10" d="M371.4,245.3l0.2-2c0.5,0.1,1,0.1,1.5,0c0.5,0,1-0.2,1.5-0.4c0.5-0.3,0.9-0.6,1.1-0.9      c0.2-0.3,0.2-0.7,0-1.1c-0.2-0.3-0.4-0.5-0.8-0.6s-0.9-0.1-1.5,0.1c-1.4,0.3-2.4,0.3-3.1,0.1s-1.3-0.7-1.6-1.5      c-0.4-0.9-0.4-1.8,0-2.7c0.4-0.9,1.2-1.6,2.3-2.2c0.5-0.3,1.1-0.5,1.7-0.6c0.6-0.1,1.2-0.1,1.8,0l-0.1,1.9c-0.5-0.1-1-0.1-1.4,0      c-0.4,0.1-0.8,0.2-1.1,0.4c-0.5,0.3-0.9,0.6-1.1,0.9c-0.2,0.3-0.2,0.7,0,1c0.2,0.4,0.4,0.5,0.8,0.6c0.4,0,0.9,0,1.7-0.2      c1.2-0.3,2.1-0.3,2.9,0c0.7,0.2,1.3,0.8,1.7,1.6c0.5,0.9,0.5,1.9,0.1,2.8c-0.4,0.9-1.2,1.6-2.4,2.2c-0.6,0.3-1.3,0.5-1.9,0.6      C372.7,245.3,372.1,245.4,371.4,245.3z"/>
			</g>
		</g>
	</g>
</g>
</svg>