<svg xmlns="http://www.w3.org/2000/svg" xmlns:xlink="http://www.w3.org/1999/xlink" version="1.1" x="0px" y="0px" viewBox="0 0 1200 500" style="enable-background:new 0 0 1200 500;" xml:space="preserve" width="1200"  height="500" >
<style type="text/css">
	.st0{fill:#007BFF;}
	.st1{opacity:0.7;}
	.st2{fill:url(#SVGID_1_);}
	.st3{fill:#2F55E5;}
	.st4{fill:#DA9E6F;}
	.st5{fill:#B3D7FF;}
	.st6{fill:#FFFFFF;}
	.st7{fill:url(#SVGID_00000068646342787487105150000001771557189215921033_);}
	.st8{fill:url(#SVGID_00000085967701974532184460000013845029363624722109_);}
	.st9{fill:url(#SVGID_00000126292219911773497380000007435704163584869764_);}
	.st10{fill:url(#SVGID_00000110468854788477910640000015990451897847349131_);}
	.st11{fill:#99CAFF;}
	.st12{fill:url(#SVGID_00000138552636125440532240000016273651018433390475_);}
	.st13{fill:url(#SVGID_00000087395044325409760150000009350054783590907282_);}
	.st14{fill:url(#SVGID_00000011004929060519309620000011511531670416113579_);}
	.st15{fill:url(#SVGID_00000107551366738540465800000015422657295218185906_);}
	.st16{fill:url(#SVGID_00000120544213695739556190000008554378651038969251_);}
	.st17{fill:url(#SVGID_00000117661231427456765560000016160333980229217667_);}
	.st18{fill:#80BDFF;}
	.st19{fill:url(#SVGID_00000183931232019077685130000016207358976807308444_);}
	.st20{fill:url(#SVGID_00000106144587644120937430000005994504288132195718_);}
	.st21{fill:url(#SVGID_00000029040925622619788640000014792867433095384977_);}
	.st22{fill:#3395FF;}
	.st23{fill:url(#SVGID_00000182530380614210729320000012801835838814917823_);}
	.st24{fill:url(#SVGID_00000008123844159883682840000017117367810748147901_);}
	.st25{fill:url(#SVGID_00000018937078616200247080000013036399880507991196_);}
	.st26{fill:url(#SVGID_00000017511238063460046180000009966455433411342478_);}
	.st27{fill:url(#SVGID_00000081615968785656547630000002362070367524494769_);}
	.st28{fill:url(#SVGID_00000083081635553728077870000005083565715976885138_);}
	.st29{fill:url(#SVGID_00000042007176503851716370000018019989174412589199_);}
	.st30{fill:url(#SVGID_00000142898699392140129170000014591793193291503788_);}
	.st31{fill:url(#SVGID_00000124846258966029632180000002388119585831370119_);}
	.st32{fill:url(#SVGID_00000147205167939633453830000014431606807818886845_);}
	.st33{fill:url(#SVGID_00000078764261413226308440000006833798345906958728_);}
	.st34{fill:url(#SVGID_00000129169055097913259300000014527507618107761296_);}
	.st35{fill:url(#SVGID_00000108309443035737413490000007818793585214008737_);}
	.st36{fill:url(#SVGID_00000163037567033274116690000016933246615021027740_);}
	.st37{fill:url(#SVGID_00000173844893654964884150000008118482517071770522_);}
	.st38{enable-background:new    ;}
	.st39, .st45 {font-family:SegoeUIVariable, 'Segoe UI Variable',system-ui,sans-serif;}
	.st40{font-size:27.9063px;}
	.st41{fill:url(#SVGID_00000052086139876242915610000015195040104937380249_);}
	.st42{fill:#F2F8FF;}
	.st43{font-size:15.9595px;}
	.st44{opacity:0.5;fill:url(#shadow_00000017510003156119961570000017366181506142650810_);enable-background:new    ;}
	.st46{font-size:21.2793px;}

	#design{
		clip-path: url("#mask");
	}

	#faces{
		transform-origin: 50% 50% !important;
		animation: rotate 8s infinite  ease-in-out alternate-reverse;
	}
 	@keyframes rotate { 
       	0% {transform: rotate(3deg) scale(0.9);}
		100% {transform: rotate(-3deg) scale(1.3);}
    } 


</style>
<g id="bg">
	<g id="background">
		<rect class="st0" width="1200" height="500"/>
	</g>

<clipPath id="mask">
    <rect class="st0" width="1200" height="500"/>
</clipPath>
</g>
<g id="design">
<g id="faces">
	<g>
		<g class="st1">
			<g>
				
					<linearGradient id="SVGID_1_" gradientUnits="userSpaceOnUse" x1="9733.332" y1="5400.1489" x2="9733.332" y2="5342.019" gradientTransform="matrix(-1 0 0 1 10021.832 -5090.3691)">
					<stop offset="0" style="stop-color:#007BFF"/>
					<stop offset="1" style="stop-color:#90B3FB"/>
				</linearGradient>
				<circle class="st2" cx="288.5" cy="285.2" r="30.5"/>
				<path class="st3" d="M264.3,303.8c5.6,7.2,14.3,11.9,24.2,11.9c10.4,0,19.5-5.2,25-13c-2.8-2-8.7-1.7-11.5-3.2      c-0.9-5.1-5.1-6-5.1-6s-8.6,0-16.3,0.9c-7.7,0.9-6.9,6-6.9,6C270.5,300.8,266.8,301.6,264.3,303.8L264.3,303.8z"/>
				<path class="st4" d="M282.1,296.7v-8.3c0-0.5,0.5-0.9,1.1-0.9h10.5c0.6,0,1.1,0.4,1.1,0.9v8.3      C294.8,300.6,282.1,300.6,282.1,296.7z"/>
				<path class="st5" d="M282.1,288.4v8.3c0,3.8,12.5,4,12.7,0v-8.3c0-0.5-0.5-0.9-1.1-0.9C292.9,287.9,281.8,286.6,282.1,288.4z"/>
				<path class="st6" d="M276.4,274.3c0.3,0,0.5,0.1,0.7,0.2c0.7-16.1,21.9-16.4,22.3,0c4.5-0.9,3,7.6-0.8,6.9      c-5.7,16.1-15.6,16-20.9,0C274.5,281.9,272.6,274.9,276.4,274.3z"/>
			</g>
			<g>
				
					<linearGradient id="SVGID_00000121250771865386646310000008950006990350246333_" gradientUnits="userSpaceOnUse" x1="9891.4316" y1="5491.3691" x2="9891.4316" y2="5450.6792" gradientTransform="matrix(-1 0 0 1 10021.832 -5090.3691)">
					<stop offset="0" style="stop-color:#007BFF"/>
					<stop offset="1" style="stop-color:#90B3FB"/>
				</linearGradient>
				<circle style="fill:url(#SVGID_00000121250771865386646310000008950006990350246333_);" cx="130.4" cy="383.8" r="21.4"/>
				<path class="st0" d="M115.6,399.2c3.8,3.7,9.1,6,14.8,6c5.9,0,11.2-2.4,15.1-6.3c-0.6-5.8-4-9.9-9.7-10.3      c-0.3,0-8.6-0.7-8.6-0.7C121.4,387.8,116.4,393.3,115.6,399.2L115.6,399.2z"/>
				<path class="st3" d="M123.2,373.7c-0.1-0.4-0.2-0.9-0.2-1.3c0-2.7,2.5-4.9,5.7-4.9c2.1,0,4,1,5,2.5c3.7,0.5,6.6,2.6,6.9,5.5      c0.1,1.2-0.2,2.3-0.8,3.3c0,0.2,0,0.4,0,0.6c0,2.6-2.5,4.8-5.5,4.8c-1.3,0-2.5-0.4-3.4-1.1c-4.6,0.1-8.4-2.3-8.7-5.6      C121.9,376.1,122.3,374.8,123.2,373.7L123.2,373.7z"/>
				<path class="st6" d="M125.1,377.5c2.2-8,7.1-6,10.3-0.5c0,0,0,0,0.1,0c2.6-2.3,2,3.8,0.1,3.9c-0.4,2.4-1.9,5.1,0,7.9      c0.2,0.4,0.1,0.6-0.1,1c-1.7,4.1-7.8,4.1-8.2-0.8c0.8-1.7,1.2-3.1,1.2-4.3C126.4,383.3,124.7,380.5,125.1,377.5L125.1,377.5z"/>
				<path class="st5" d="M134.8,387.2L134.8,387.2c0,0-4.5,0.5-5.3-2.1c2,0.3,4.3-0.7,5.7-2.7C134.8,384.3,134.4,386.1,134.8,387.2      L134.8,387.2z"/>
				
					<ellipse transform="matrix(0.8198 -0.5727 0.5727 0.8198 -193.4203 146.2211)" class="st6" cx="135.6" cy="380.4" rx="0.3" ry="0.3"/>
			</g>
			<g>
				
					<linearGradient id="SVGID_00000084513191942517902820000013391092619097906342_" gradientUnits="userSpaceOnUse" x1="9871.832" y1="5382.459" x2="9871.832" y2="5324.3389" gradientTransform="matrix(-1 0 0 1 10021.832 -5090.3691)">
					<stop offset="0" style="stop-color:#007BFF"/>
					<stop offset="1" style="stop-color:#90B3FB"/>
				</linearGradient>
				<circle style="fill:url(#SVGID_00000084513191942517902820000013391092619097906342_);" cx="150" cy="267.5" r="30.5"/>
				<g>
					<g>
						<path class="st3" d="M125.8,286.2c5.6,7.2,14.3,11.9,24.2,11.9c10.2,0,19.2-5,24.7-12.6c-2.2-0.9-4.6-1.7-6.1-3.6        c-5.3-6.6-15.8-5-26.6-4.6c-7.4,0.8-11,6.7-11,6.7C128.4,284.4,126.7,285.2,125.8,286.2z"/>
						<path class="st4" d="M143.2,279.6v-8.3c0-0.5,0.5-0.9,1.1-0.9h10.5c0.6,0,1.1,0.4,1.1,0.9v8.3        C155.8,283.5,143.2,283.5,143.2,279.6L143.2,279.6z"/>
						<path class="st0" d="M143.2,271.4v10c0,3.8,11.8,3.9,12.6,0.4c0.2-1.4,0-8.9,0.1-10.4c0-0.5-0.5-0.9-1.1-0.9        C153.9,270.8,142.8,269.5,143.2,271.4z"/>
						<path class="st0" d="M161.7,260.1c0,2.4-1.5,4.1-3,4.1c-1,0-0.7-2.8-0.7-4.2s0.8-2.9,1.8-2.9S161.7,258.8,161.7,260.1        L161.7,260.1z"/>
						<path class="st0" d="M136.9,260.1c0,2.4,1.5,4.1,3,4.1c1,0,0.7-2.8,0.7-4.2s-0.8-2.9-1.8-2.9S136.9,258.8,136.9,260.1        L136.9,260.1z"/>
						<path class="st3" d="M159.2,259.7c0.1,27.1-19.2,30.5-19.7,1.7C146.4,268.6,152.7,265.8,159.2,259.7z"/>
						<ellipse class="st3" cx="157.7" cy="254.2" rx="2.4" ry="6.4"/>
						<ellipse class="st3" cx="141.3" cy="254.2" rx="2.4" ry="6.4"/>
						<path class="st0" d="M159.1,259.8c0.6,3.9-2,5.2-3.5,8c-1.3,3.2-3.6,5.5-6.5,5.5s-5-1.5-6.1-4.9c-1-3.3-3.4-3.9-3.6-6.9        c-0.2-8.5,0-16.4,10.2-16.1C158.5,245.3,159.1,251.5,159.1,259.8L159.1,259.8z"/>
					</g>
					<path class="st3" d="M142,254.8c0.1,1.3,1.4,0.2,2.8,0.1c1.4-0.1,2.6,0.8,2.4-0.6c-0.1-1.3-1.3-1.6-2.8-1.5       C143,253,141.9,253.5,142,254.8z"/>
					<path class="st3" d="M151.1,254.4c-0.1,1.3,1,0.3,2.5,0.4c1.4,0.1,2.6,1.3,2.8,0s-1-1.8-2.5-1.9       C152.4,252.8,151.2,253.1,151.1,254.4L151.1,254.4z"/>
				</g>
			</g>
			<g>
				
					<linearGradient id="SVGID_00000000927189703631175040000012350609262672660627_" gradientUnits="userSpaceOnUse" x1="9984.832" y1="5393.3989" x2="9984.832" y2="5352.709" gradientTransform="matrix(-1 0 0 1 10021.832 -5090.3691)">
					<stop offset="0" style="stop-color:#007BFF"/>
					<stop offset="1" style="stop-color:#90B3FB"/>
				</linearGradient>
				<circle style="fill:url(#SVGID_00000000927189703631175040000012350609262672660627_);" cx="37" cy="285.8" r="21.4"/>
				<g>
					<g>
						<path class="st6" d="M17.6,294.8c5.2,12.1,22.2,16.3,32.4,7.9c-1.3-8-6.9-12.4-13.5-13.1c-0.4-0.1-0.8-0.1-1.2-0.1        C29.4,289.4,22.2,291.1,17.6,294.8z"/>
						<path class="st3" d="M39.5,276.9c-3.8,2.8-1.6-5.9-1.6-5.9S43.2,274.1,39.5,276.9L39.5,276.9z"/>
						<path class="st0" d="M25.4,276.6c0.4-10.1,11.5-9.6,13.9-2.7c1,2.4,0.2,9.1-0.8,11.4c-0.6,1.1-1,1.6-1.8,2.2        c-0.1,1.3-0.3,3.8-0.3,3.9c-0.6,3.7-9.9,2.8-9.3-0.9c1.4-2,0.9-4.5,0.5-5.9c-0.4-1-0.7-1.7-0.9-2.4c-0.7-2.1-2.5-0.7-2.7-3.8        C24,277,24.8,276.4,25.4,276.6L25.4,276.6z"/>
					</g>
					<g>
						<path class="st3" d="M36.7,287.4c-0.2,2.2-0.2,2.7-0.2,3.4c0-0.9-5-4-5.5-4.5C33.1,287.4,35,288,36.7,287.4L36.7,287.4z"/>
						<path class="st3" d="M38.5,271.3c0,1.1-3.9,0.7-6,0.7s-6.6,0.7-6.6-0.4s2.6-4,6-4.1C35.1,267.4,38.5,270.2,38.5,271.3z"/>
						<path class="st3" d="M24.9,276.6c1.4,0,2,1.2,2.9,1.1c2.6-0.2,1.7-1.2,1.5-4.5C29.1,268.3,22.6,272.2,24.9,276.6z"/>
					</g>
				</g>
			</g>
			<g>
				
					<linearGradient id="SVGID_00000181087491840093486820000017248795299286396838_" gradientUnits="userSpaceOnUse" x1="9805.4316" y1="5310.0693" x2="9805.4316" y2="5251.939" gradientTransform="matrix(-1 0 0 1 10021.832 -5090.3691)">
					<stop offset="0" style="stop-color:#007BFF"/>
					<stop offset="1" style="stop-color:#90B3FB"/>
				</linearGradient>
				<circle style="fill:url(#SVGID_00000181087491840093486820000017248795299286396838_);" cx="216.4" cy="195.1" r="30.6"/>
				<g>
					<g>
						<path class="st3" d="M195.6,217.5c5.5,5.1,12.8,8.2,20.8,8.2c7.9,0,15.1-3,20.5-7.9c-2.1-14.6-12.5-17.6-25.6-16.5        c0.1,0.5-1.8,0.9-2.3,0.9C200.8,202.7,196,208.9,195.6,217.5z"/>
						<path class="st6" d="M199.5,193.3c-0.2,1.8-1.4,2.9-2.4,4.3h33.5c-0.4-9-2.6-21.7-11.6-23.8c-5.8-1.3-12.3,0.7-14.6,5.8        c-0.6,1.8-0.2,3.3-1.6,4.8C198.9,187.3,198.8,188.5,199.5,193.3z"/>
						<path class="st0" d="M224,186.3c-0.6-5.8-3.5-6.8-5.8-6.8c-3.7,0.1-6.2,1.6-8.8,6.1h-0.1c-3.7-3.3-2.9,5.4-0.2,5.5        c0.6,3.4,2.7,7.3,0,11.2c-0.3,0.6-0.1,0.8,0.1,1.5c2.5,5.9,11.1,5.8,11.8-1.2c-1.2-2.4-1.6-4.4-1.8-6.1        C222.2,194.7,224.5,190.8,224,186.3L224,186.3z"/>
						<path class="st3" d="M210.1,200.3L210.1,200.3c0,0,6.4,0.7,7.6-3c-2.8,0.4-6.1-1-8.1-3.8C210.2,196.1,210.7,198.7,210.1,200.3        L210.1,200.3z"/>
						<ellipse class="st6" cx="209" cy="190.5" rx="0.4" ry="0.4"/>
					</g>
					<path class="st11" d="M209.2,185.4h15v0.8c0.1,4.1-6.8,3.8-6.4,0h-0.9c0.2,2.8-3.1,4-4.9,2.9c-1-0.6-1.5-1.8-1.5-2.9h-1.3       L209.2,185.4L209.2,185.4z"/>
				</g>
			</g>
			<g>
				
					<linearGradient id="SVGID_00000054259129884173611570000013181993384750576288_" gradientUnits="userSpaceOnUse" x1="9824.2715" y1="5130.2109" x2="9824.2715" y2="5096.5068" gradientTransform="matrix(-1 0 0 1 10021.832 -5090.3691)">
					<stop offset="0" style="stop-color:#007BFF"/>
					<stop offset="1" style="stop-color:#90B3FB"/>
				</linearGradient>
				<circle style="fill:url(#SVGID_00000054259129884173611570000013181993384750576288_);" cx="197.6" cy="25.6" r="17.7"/>
				<g>
					<g>
						<path class="st3" d="M185.5,38.6c3.2,3,7.4,4.8,12.1,4.8c4.6,0,8.8-1.7,11.9-4.6c-1.2-8.5-7.2-10.2-14.8-9.6        c0.1,0.3-1,0.5-1.3,0.5C188.5,30,185.7,33.6,185.5,38.6z"/>
						<path class="st6" d="M187.8,24.5c-0.1,1-0.8,1.7-1.4,2.5h19.4c-0.2-5.2-1.5-12.6-6.7-13.8c-3.4-0.8-7.1,0.4-8.5,3.4        c-0.3,1-0.1,1.9-0.9,2.8C187.4,21.1,187.4,21.8,187.8,24.5z"/>
						<path class="st0" d="M202,20.5c-0.3-3.4-2-3.9-3.4-3.9c-2.1,0.1-3.6,0.9-5.1,3.5h-0.1c-2.1-1.9-1.7,3.1-0.1,3.2        c0.3,2,1.6,4.2,0,6.5c-0.2,0.3-0.1,0.5,0.1,0.9c1.4,3.4,6.4,3.4,6.8-0.7c-0.7-1.4-0.9-2.6-1-3.5        C200.9,25.3,202.3,23.1,202,20.5L202,20.5z"/>
						<path class="st3" d="M193.9,28.6L193.9,28.6c0,0,3.7,0.4,4.4-1.7c-1.6,0.2-3.5-0.6-4.7-2.2C194,26.2,194.3,27.7,193.9,28.6        L193.9,28.6z"/>
						<ellipse class="st6" cx="193.3" cy="22.9" rx="0.2" ry="0.2"/>
					</g>
					<path class="st11" d="M193.4,20h8.7v0.5c0.1,2.4-3.9,2.2-3.7,0h-0.5c0.1,1.6-1.8,2.3-2.8,1.7c-0.6-0.3-0.9-1-0.9-1.7h-0.8V20       L193.4,20z"/>
				</g>
			</g>
			<g>
				
					<linearGradient id="SVGID_00000129927984097546479810000014440559087435672229_" gradientUnits="userSpaceOnUse" x1="9977.4316" y1="5270.9189" x2="9977.4316" y2="5230.229" gradientTransform="matrix(-1 0 0 1 10021.832 -5090.3691)">
					<stop offset="0" style="stop-color:#007BFF"/>
					<stop offset="1" style="stop-color:#90B3FB"/>
				</linearGradient>
				<path style="fill:url(#SVGID_00000129927984097546479810000014440559087435672229_);" d="M23,163.3c0,5.8,2.3,11,6,14.8      c3.9,4,9.4,6.5,15.4,6.5c6.8,0,12.9-3.2,16.8-8.1c2.9-3.6,4.6-8.2,4.6-13.2c0-11.8-9.6-21.4-21.4-21.4S23,151.5,23,163.3      L23,163.3z"/>
				<path class="st3" d="M29,178.2c3.9,4,9.4,6.5,15.4,6.5c6.8,0,12.9-3.2,16.8-8.1c-2.6-1.1-6.6-2.1-8-2.9      c-0.3-2.2-2.1-3.5-3.2-3.7c0,0-5.3,0-10,0.5s-4.2,3.7-4.2,3.7C35.6,174.2,32.5,176.1,29,178.2L29,178.2z"/>
				<path class="st6" d="M37.3,156.6c0.2,0,0.3,0.1,0.5,0.2c0.1-5.2,1.2-8.5,7.2-8.5c5.5,0,6.4,3.6,6.5,8.5c0.1-0.1,0.3-0.2,0.5-0.2      c0.7,0,1.3,1.1,1.3,2.1c0,1.6-1,2.8-2,2.9c-0.3,2-1,3.8-2.1,5.1c0,0.8,0,5.7,0,5.7c-0.1,2.8-8.9,2.7-8.9,0v-4.7      c-1.6-1.5-2.2-3.8-2.4-6.1c-1-0.1-2-1.3-2-2.9C36,157.6,36.6,156.6,37.3,156.6L37.3,156.6z"/>
				<path class="st5" d="M44.7,162.2c-3,0-4.9-1.7-6.9-3.9c0.2,3.1,0.2,10.4,4.8,10.4l4.8,0.1c3,0,4.3-4,4.3-10.5      C49.7,161.3,47.3,162.3,44.7,162.2L44.7,162.2z M45.9,165.7H43c-0.5,0-0.4-0.7-0.4-1c0-0.2,0.2-0.4,0.4-0.4      c0.4,0.1,3.4-0.4,3.3,0.4C46.3,165,46.4,165.7,45.9,165.7L45.9,165.7z"/>
			</g>
			<g>
				
					<linearGradient id="SVGID_00000005262996999218536120000009098635368118066603_" gradientUnits="userSpaceOnUse" x1="9955.4316" y1="5555.7192" x2="9955.4316" y2="5497.5889" gradientTransform="matrix(-1 0 0 1 10021.832 -5090.3691)">
					<stop offset="0" style="stop-color:#007BFF"/>
					<stop offset="1" style="stop-color:#90B3FB"/>
				</linearGradient>
				<circle style="fill:url(#SVGID_00000005262996999218536120000009098635368118066603_);" cx="66.4" cy="440.7" r="30.5"/>
				<g>
					<path class="st5" d="M36.9,448.7c0.8,3,2,5.8,3.6,8.3c5.4,8.6,15,14.3,25.9,14.3c5.1,0,9.9-1.2,14.1-3.5       c1.3-0.7,2.5-1.4,3.7-2.2C85.1,447.9,53.4,433.1,36.9,448.7L36.9,448.7z"/>
					<g>
						<path class="st6" d="M66.4,471.3c5.1,0,9.9-1.2,14.1-3.5c-1.8-9-4.5-13.5-12.4-17.3c-4-2.2-10.1-1.1-14-1.3        c0.1,0.5-1.8,0.9-2.3,0.9c-4.1,0-9,3-11.3,6.9C46,465.6,55.5,471.3,66.4,471.3z"/>
						<path class="st6" d="M48.5,435.6c-1.3-8.7,5.8-15.9,12.2-15.9c8.1,0,13.5,11.9,7.2,18.2C72,456,38.8,452.3,48.5,435.6        L48.5,435.6z"/>
						<path class="st0" d="M66.9,434c1-10.4-12.4-8.6-14.7-0.6h-0.1c-3.7-3.3-2.9,5.5-0.2,5.5c0.7,3.4,2.7,7.3,0,11.2        c-0.3,0.6-0.1,0.8,0.1,1.5c2.5,3.2,10.6,4.6,13.3,1.6c-0.9-2.9-3.6-6.5-3.3-8.9C65.1,442.4,67.4,438.4,66.9,434L66.9,434z"/>
						<path class="st3" d="M53,447.9L53,447.9c0,0,6.4,0.7,7.6-3c-2.8,0.4-6.1-1-8.1-3.8C53.1,443.7,53.6,446.4,53,447.9L53,447.9z"/>
						
							<ellipse transform="matrix(0.5727 -0.8198 0.8198 0.5727 -337.0023 229.8022)" class="st6" cx="51.9" cy="438.2" rx="0.4" ry="0.4"/>
					</g>
				</g>
			</g>
			<g>
				
					<linearGradient id="SVGID_00000018939194376629913140000010877793343140477884_" gradientUnits="userSpaceOnUse" x1="9702.332" y1="5510.8789" x2="9702.332" y2="5452.749" gradientTransform="matrix(-1 0 0 1 10021.832 -5090.3691)">
					<stop offset="0" style="stop-color:#007BFF"/>
					<stop offset="1" style="stop-color:#90B3FB"/>
				</linearGradient>
				<circle style="fill:url(#SVGID_00000018939194376629913140000010877793343140477884_);" cx="319.5" cy="395.9" r="30.5"/>
				<path class="st3" d="M293.9,412.6c5.5,8.3,14.9,13.9,25.6,13.9s20-5.5,25.5-13.7C332.1,400,307.3,399.4,293.9,412.6L293.9,412.6      z"/>
				<path class="st0" d="M310,382.9c0,1.6,7.3-3,10.2-3c2.9,0,9.1,1,9.1-0.5s-3.6-5.3-8.3-5.9C304.3,371.2,310,381.3,310,382.9      L310,382.9z"/>
				<path class="st6" d="M330,386.4c0.8-0.3,1.9,0.5,1.9,2.3c-0.3,4.5-3.2,3.8-4.1,6.8c-0.6,1.2-1.5,3.6-1.5,3.6s1,5.2,1.2,9      c0.9,5.3-12.4,7.4-13.3,2.1c0-0.1-0.1-4.8-0.4-8.5c-1.2-0.8-2.1-1.9-2.5-2.9c-2.1-3.5,1.7-13.7-1.1-16.1      C309.5,382.1,329.4,372,330,386.4L330,386.4z"/>
				<path class="st0" d="M330.7,386.4c-2-0.1-3,1.1-4.3,3c-3.5,0.6,0.1-2.6-2-7.8C325.7,374.7,334,380.2,330.7,386.4L330.7,386.4z"/>
				<path class="st5" d="M326.4,399.1c0,0-2.8,2.4-6.1,2.9c3.5,1.1,6.7,0.9,6.7,0.9L326.4,399.1L326.4,399.1z"/>
			</g>
			<g>
				
					<linearGradient id="SVGID_00000049209699996308425720000002726908238922240188_" gradientUnits="userSpaceOnUse" x1="9881.9316" y1="5222.4893" x2="9881.9316" y2="5164.3589" gradientTransform="matrix(-1 0 0 1 10021.832 -5090.3691)">
					<stop offset="0" style="stop-color:#007BFF"/>
					<stop offset="1" style="stop-color:#90B3FB"/>
				</linearGradient>
				<circle style="fill:url(#SVGID_00000049209699996308425720000002726908238922240188_);" cx="139.9" cy="107.5" r="30.5"/>
				<g>
					<g>
						<g>
							<path class="st6" d="M115.7,126.2c5.6,7.2,14.3,11.9,24.2,11.9c10.2,0,19.2-5,24.7-12.6c-2.2-0.9-4.6-1.7-6.1-3.6         c-5.3-6.6-15.8-5.1-26.6-4.6c-7.5,0.8-11,6.7-11,6.7C118.3,124.4,116.6,125.2,115.7,126.2L115.7,126.2z"/>
							<path class="st4" d="M133.1,119.7v-8.3c0-0.5,0.5-0.9,1.1-0.9h10.5c0.6,0,1.1,0.4,1.1,0.9v8.3         C145.7,123.6,133.1,123.6,133.1,119.7L133.1,119.7z"/>
							<path class="st0" d="M133.1,111.4v10c0,3.8,11.8,3.9,12.6,0.4c0.2-1.4,0-8.9,0.1-10.4c0-0.5-0.5-0.9-1.1-0.9         C143.8,110.8,132.7,109.5,133.1,111.4z"/>
							<path class="st0" d="M151.6,100.2c0,2.4-1.5,4.2-3,4.2c-1,0-0.7-2.8-0.7-4.2s0.8-2.9,1.8-2.9         C150.7,97.2,151.6,98.8,151.6,100.2L151.6,100.2z"/>
							<path class="st0" d="M126.8,100.2c0,2.4,1.5,4.2,3,4.2c1,0,0.7-2.8,0.7-4.2c0-1.4-0.8-2.9-1.8-2.9         C127.7,97.2,126.8,98.8,126.8,100.2L126.8,100.2z"/>
							<path class="st3" d="M149.1,99.7c0.1,27.1-19.2,30.6-19.7,1.7C136.3,108.6,142.6,105.8,149.1,99.7z"/>
							<ellipse class="st3" cx="147.6" cy="94.3" rx="2.4" ry="6.3"/>
							<ellipse class="st3" cx="131.2" cy="94.3" rx="2.4" ry="6.3"/>
							<path class="st0" d="M149.1,99.8c0.6,3.9-2,5.2-3.5,8c-1.3,3.2-3.6,5.4-6.5,5.4s-5-1.5-6.1-4.9c-1-3.3-3.4-3.9-3.6-6.9         c-0.2-8.5,0-16.4,10.2-16.1C148.4,85.3,149,91.5,149.1,99.8L149.1,99.8z"/>
						</g>
						<path class="st3" d="M131.9,94.9c0.1,1.3,1.4,0.2,2.8,0.1c1.4-0.1,2.6,0.8,2.4-0.6c-0.1-1.3-1.3-1.6-2.8-1.5        S131.8,93.5,131.9,94.9z"/>
						<path class="st3" d="M141,94.4c-0.1,1.3,1,0.3,2.5,0.4c1.4,0.1,2.6,1.3,2.8,0c0.1-1.3-1-1.8-2.5-1.9S141.1,93.1,141,94.4z"/>
					</g>
					<path class="st6" d="M152.1,86.8c-0.6-3.3-13.5-14.1-14.3-7.9v8.7c5.9,2.3,9.7,4.8,11.6,9.5C150.1,96.2,153.8,91.6,152.1,86.8       L152.1,86.8z"/>
					<path class="st6" d="M129,97c-7.9-10,3-19.7,12.7-22.7c0.2,4.1,6.3,2.6,5.9,6.9C142.9,87.2,130.8,88.7,129,97L129,97z"/>
				</g>
			</g>
			<g>
				
					<linearGradient id="SVGID_00000077320818202496233670000006042665107116121993_" gradientUnits="userSpaceOnUse" x1="9806.1318" y1="5574.4893" x2="9806.1318" y2="5516.3589" gradientTransform="matrix(-1 0 0 1 10021.832 -5090.3691)">
					<stop offset="0" style="stop-color:#007BFF"/>
					<stop offset="1" style="stop-color:#90B3FB"/>
				</linearGradient>
				<circle style="fill:url(#SVGID_00000077320818202496233670000006042665107116121993_);" cx="215.7" cy="459.5" r="30.5"/>
				<g>
					<g>
						<path class="st0" d="M240.3,477.4c-10.6,15.5-35.8,16.7-47.8,1.9c1.9-3.9,6.3-5,10.2-5.5c0,0-0.8-4.5,6-5.3s14.3-0.8,14.3-0.8        s3.8,0.8,4.5,5.3c2.5,1.4,8.1,1,10.4,3C238.3,477.2,239.2,477.4,240.3,477.4L240.3,477.4z"/>
						<path class="st4" d="M209.1,471v-8.3c0-0.5,0.5-0.9,1.1-0.9h10.5c0.6,0,1.1,0.4,1.1,0.9v8.3C221.7,475,209.1,475,209.1,471        L209.1,471z"/>
						<path class="st5" d="M203.4,448.6c0.3,0,0.5,0.1,0.8,0.2c0.7-15.3,21.9-15.8,22.3,0c4.2-0.9,3.1,7.3-0.5,6.9        c-0.6,2.9-1.8,5.8-4.2,7.7c0,1.9,0,7.6,0,7.6c-0.2,4-12.7,3.8-12.7,0v-7.9c-2.1-1.8-3.6-4.5-4.4-7.5        C201.4,456.2,199.6,449.3,203.4,448.6L203.4,448.6z"/>
					</g>
					<path class="st0" d="M225.4,443.1c-3.8,1.1-16.4,1.1-20.1,0c1.9-4,4.4-6.3,9.9-6.3C220.7,436.8,223.7,439.1,225.4,443.1z"/>
				</g>
				<path class="st18" d="M209.1,463.1c0,0,3.2,1.7,5.1,1.8c-3.5,0.9-5.1,1.3-5.1,1.3V463.1L209.1,463.1z"/>
			</g>
			<g>
				
					<linearGradient id="SVGID_00000019663460407573278550000009049596671821234856_" gradientUnits="userSpaceOnUse" x1="9657.1318" y1="5266.3989" x2="9657.1318" y2="5208.269" gradientTransform="matrix(-1 0 0 1 10021.832 -5090.3691)">
					<stop offset="0" style="stop-color:#007BFF"/>
					<stop offset="1" style="stop-color:#90B3FB"/>
				</linearGradient>
				<circle style="fill:url(#SVGID_00000019663460407573278550000009049596671821234856_);" cx="364.7" cy="151.4" r="30.5"/>
				<g>
					<g>
						<path class="st6" d="M389.3,169.3c-10.5,15.4-35.9,16.7-47.8,1.9c1.9-3.9,6.3-5,10.2-5.5c0,0-0.8-4.5,6-5.3s14.3-0.8,14.3-0.8        s3.8,0.8,4.5,5.3c2.5,1.4,8.1,1,10.4,3.1C387.4,169.1,388.2,169.3,389.3,169.3L389.3,169.3z"/>
						<path class="st4" d="M358.1,163v-8.3c0-0.5,0.5-0.9,1.1-0.9h10.5c0.6,0,1.1,0.4,1.1,0.9v8.3        C370.8,166.9,358.1,166.9,358.1,163z"/>
						<path class="st0" d="M352.4,140.5c0.3,0,0.5,0.1,0.8,0.2c0.7-15.3,21.9-15.8,22.3-0.1c4.2-0.9,3.1,7.3-0.5,6.9        c-0.5,2.9-1.8,5.8-4.2,7.7c0,1.9,0,7.6,0,7.6c-0.2,4.1-12.7,3.8-12.7,0v-7.9c-2.1-1.8-3.6-4.5-4.4-7.4        C350.4,148.1,348.6,141.2,352.4,140.5L352.4,140.5z"/>
					</g>
					<path class="st3" d="M374.4,135c-3.8,1.1-16.4,1.1-20.1,0c1.9-4,4.4-6.3,9.9-6.3S372.8,131,374.4,135L374.4,135z"/>
				</g>
				<path class="st3" d="M358.1,155c0,0,3.2,1.7,5,1.8c-3.5,0.9-5.1,1.3-5.1,1.3L358.1,155L358.1,155z"/>
			</g>
			<g>
				
					<linearGradient id="SVGID_00000158750092998584537770000011623920847196405391_" gradientUnits="userSpaceOnUse" x1="9505.2324" y1="5540.439" x2="9505.2324" y2="5482.3091" gradientTransform="matrix(-1 0 0 1 10021.832 -5090.3691)">
					<stop offset="0" style="stop-color:#007BFF"/>
					<stop offset="1" style="stop-color:#90B3FB"/>
				</linearGradient>
				<circle style="fill:url(#SVGID_00000158750092998584537770000011623920847196405391_);" cx="516.6" cy="425.4" r="30.5"/>
				<g>
					<g>
						<path class="st0" d="M541.2,443.4c-10.5,15.5-35.9,16.7-47.8,1.9c1.9-3.9,6.3-5,10.2-5.5c0,0-0.8-4.5,6-5.3s14.3-0.8,14.3-0.8        s3.8,0.8,4.5,5.3c2.5,1.4,8.1,1,10.4,3C539.3,443.1,540.2,443.3,541.2,443.4L541.2,443.4z"/>
						<path class="st4" d="M510,437v-8.3c0-0.5,0.5-0.9,1.1-0.9h10.5c0.6,0,1.1,0.4,1.1,0.9v8.3C522.7,440.9,510,440.9,510,437z"/>
						<path class="st5" d="M504.3,414.5c0.3,0,0.5,0.1,0.8,0.2c0.7-15.3,21.9-15.8,22.3,0c4.2-0.9,3.1,7.3-0.5,6.9        c-0.5,2.9-1.8,5.8-4.2,7.7c0,1.9,0,7.6,0,7.6c-0.2,4-12.7,3.8-12.7,0V429c-2.1-1.8-3.6-4.5-4.4-7.5        C502.3,422.2,500.5,415.2,504.3,414.5L504.3,414.5z"/>
					</g>
					<path class="st0" d="M526.3,409c-3.8,1.1-16.4,1.1-20.1,0c1.9-4,4.4-6.3,9.9-6.3S524.7,405.1,526.3,409z"/>
				</g>
				<path class="st18" d="M510,429.1c0,0,3.2,1.7,5.1,1.8c-3.5,0.9-5.1,1.3-5.1,1.3L510,429.1L510,429.1z"/>
			</g>
			<g>
				
					<linearGradient id="SVGID_00000034809964346310726630000002473779581232058799_" gradientUnits="userSpaceOnUse" x1="1188.87" y1="5178.6191" x2="1188.87" y2="5137.9292" gradientTransform="matrix(1 0 0 1 -887.27 -5090.3691)">
					<stop offset="0" style="stop-color:#007BFF"/>
					<stop offset="1" style="stop-color:#90B3FB"/>
				</linearGradient>
				<circle style="fill:url(#SVGID_00000034809964346310726630000002473779581232058799_);" cx="301.6" cy="71" r="21.4"/>
				<path class="st3" d="M319.5,82.7c-3.8,5.8-10.4,9.7-17.9,9.7s-14-3.8-17.9-9.6C292.8,73.9,310.2,73.5,319.5,82.7z"/>
				<path class="st0" d="M308.2,61.9c0,1.1-5.1-2.1-7.1-2.1s-6.4,0.7-6.4-0.4s2.5-3.7,5.8-4.1C312.2,53.7,308.2,60.8,308.2,61.9      L308.2,61.9z"/>
				<path class="st6" d="M294.2,64.4c-0.6-0.2-1.3,0.4-1.3,1.6c0.2,3.1,2.2,2.6,2.9,4.7c0.4,0.8,1,2.5,1,2.5s-0.7,3.7-0.8,6.3      c-0.6,3.7,8.7,5.2,9.3,1.4c0-0.1,0-3.3,0.3-5.9c0.9-0.6,1.5-1.3,1.7-2c1.5-2.4-1.2-9.6,0.8-11.3      C308.6,61.3,294.7,54.3,294.2,64.4L294.2,64.4z"/>
				<path class="st0" d="M293.8,64.4c1.4-0.1,2.1,0.8,3,2.1c2.5,0.4-0.1-1.8,1.4-5.4C297.2,56.2,291.5,60,293.8,64.4z"/>
				<path class="st5" d="M296.8,73.3c0,0,2,1.7,4.2,2c-2.4,0.8-4.7,0.6-4.7,0.6L296.8,73.3z"/>
			</g>
			<circle class="st22" cx="438.6" cy="44.9" r="9.6"/>
			<circle class="st22" cx="383.5" cy="330.6" r="9.6"/>
			
				<ellipse transform="matrix(0.3417 -0.9398 0.9398 0.3417 225.0347 560.9663)" class="st11" cx="513" cy="119.8" rx="3.6" ry="3.6"/>
			<circle class="st11" cx="361.1" cy="233.4" r="3.6"/>
			<circle class="st11" cx="412.6" cy="398.2" r="3.6"/>
			<circle class="st11" cx="238.6" cy="95.2" r="3.6"/>
			<circle class="st11" cx="110.4" cy="208.9" r="3.6"/>
			<circle class="st11" cx="13.7" cy="44.7" r="3.6"/>
			<circle class="st22" cx="236.9" cy="383.8" r="9.6"/>
			<circle class="st22" cx="413.5" cy="459.5" r="9.6"/>
			<circle class="st22" cx="60.4" cy="81.5" r="9.6"/>
		</g>
		<g class="st1">
			<g>
				
					<linearGradient id="SVGID_00000025425516116108751560000013228823096198305958_" gradientUnits="userSpaceOnUse" x1="-6733.9404" y1="5319.5391" x2="-6733.9404" y2="5261.4189" gradientTransform="matrix(1 0 0 1 7645.4902 -5090.3691)">
					<stop offset="0" style="stop-color:#007BFF"/>
					<stop offset="1" style="stop-color:#90B3FB"/>
				</linearGradient>
				<path style="fill:url(#SVGID_00000025425516116108751560000013228823096198305958_);" d="M942.1,204.6      c0,16.9-13.7,30.6-30.5,30.6S881,221.4,881,204.6s13.7-30.6,30.5-30.6S942.1,187.7,942.1,204.6z"/>
				<path class="st3" d="M935.8,223.2c-5.6,7.2-14.3,11.9-24.2,11.9c-10.4,0-19.5-5.2-25-13.1c2.8-2,8.7-1.7,11.5-3.2      c0.9-5.1,5.1-6,5.1-6s8.6,0,16.3,0.9s6.8,6,6.8,6C929.6,220.2,933.2,221,935.8,223.2z"/>
				<path class="st4" d="M918,216.1v-8.3c0-0.5-0.5-0.9-1.1-0.9h-10.5c-0.6,0-1.1,0.4-1.1,0.9v8.3C905.3,220,918,220,918,216.1z"/>
				<path class="st5" d="M918,207.8v8.3c0,3.8-12.5,4.1-12.7,0v-8.3c0-0.5,0.5-0.9,1.1-0.9C907.2,207.3,918.3,206,918,207.8z"/>
				<path class="st6" d="M923.7,193.7c-0.3,0-0.5,0.1-0.7,0.2c-0.7-16.1-21.9-16.4-22.3,0c-4.5-0.9-3,7.6,0.8,6.9      c5.7,16.1,15.7,16,20.9,0C925.6,201.3,927.5,194.3,923.7,193.7L923.7,193.7z"/>
			</g>
			<g>
				
					<linearGradient id="SVGID_00000008850100512205195800000002213736331421238422_" gradientUnits="userSpaceOnUse" x1="-6570.3901" y1="5410.7593" x2="-6570.3901" y2="5370.0693" gradientTransform="matrix(1 0 0 1 7645.4902 -5090.3691)">
					<stop offset="0" style="stop-color:#007BFF"/>
					<stop offset="1" style="stop-color:#90B3FB"/>
				</linearGradient>
				<path style="fill:url(#SVGID_00000008850100512205195800000002213736331421238422_);" d="M1096.5,303.1      c0,11.8-9.6,21.4-21.4,21.4s-21.4-9.6-21.4-21.4s9.6-21.4,21.4-21.4S1096.5,291.3,1096.5,303.1z"/>
				<path class="st0" d="M1089.9,318.6c-3.8,3.7-9.1,6-14.8,6s-11.2-2.4-15.1-6.3c0.6-5.8,4-9.9,9.7-10.3c0.3,0,8.6-0.7,8.6-0.7      C1084.1,307.2,1089,312.7,1089.9,318.6L1089.9,318.6z"/>
				<path class="st3" d="M1082.2,293.1c0.1-0.4,0.2-0.9,0.2-1.3c0-2.7-2.5-4.9-5.7-4.9c-2.1,0-4,1-5,2.5c-3.7,0.5-6.6,2.6-6.9,5.5      c-0.1,1.2,0.2,2.3,0.8,3.3c0,0.2,0,0.4,0,0.6c0,2.6,2.5,4.8,5.5,4.8c1.3,0,2.5-0.4,3.4-1.1c4.6,0.1,8.4-2.3,8.7-5.6      C1083.5,295.5,1083.1,294.2,1082.2,293.1L1082.2,293.1z"/>
				<path class="st6" d="M1080.4,296.8c-2.2-8-7.1-6-10.2-0.5c0,0,0,0-0.1,0c-2.6-2.3-2,3.8-0.1,3.9c0.4,2.4,1.9,5.1,0,7.9      c-0.2,0.4-0.1,0.6,0.1,1c1.7,4.1,7.8,4.1,8.2-0.8c-0.8-1.7-1.2-3.1-1.2-4.3C1079.1,302.7,1080.7,299.9,1080.4,296.8      L1080.4,296.8z"/>
				<path class="st5" d="M1070.6,306.6L1070.6,306.6c0,0,4.5,0.5,5.3-2.1c-2,0.3-4.3-0.7-5.7-2.7      C1070.7,303.7,1071.1,305.5,1070.6,306.6L1070.6,306.6z"/>
				<path class="st6" d="M1070.1,299.8c0,0.2-0.1,0.3-0.3,0.3s-0.3-0.1-0.3-0.3s0.1-0.3,0.3-0.3S1070.1,299.6,1070.1,299.8z"/>
			</g>
			<g>
				
					<linearGradient id="SVGID_00000127736120074523610470000002558291324227897758_" gradientUnits="userSpaceOnUse" x1="-6778.4902" y1="5427.4189" x2="-6778.4902" y2="5369.2891" gradientTransform="matrix(1 0 0 1 7645.4902 -5090.3691)">
					<stop offset="0" style="stop-color:#007BFF"/>
					<stop offset="1" style="stop-color:#90B3FB"/>
				</linearGradient>
				<path style="fill:url(#SVGID_00000127736120074523610470000002558291324227897758_);" d="M897.5,312.4      c0,16.9-13.7,30.5-30.5,30.5s-30.5-13.7-30.5-30.5s13.7-30.5,30.5-30.5S897.5,295.6,897.5,312.4z"/>
				<g>
					<g>
						<path class="st3" d="M891.1,331.1c-5.6,7.2-14.3,11.9-24.2,11.9s-19.2-5-24.7-12.6c2.2-0.9,4.6-1.7,6.1-3.6        c5.3-6.6,15.8-5,26.7-4.6c7.5,0.8,11,6.7,11,6.7C888.5,329.4,890.2,330.1,891.1,331.1z"/>
						<path class="st4" d="M873.8,324.6v-8.3c0-0.5-0.5-0.9-1.1-0.9h-10.5c-0.6,0-1.1,0.4-1.1,0.9v8.3        C861.1,328.5,873.8,328.5,873.8,324.6z"/>
						<path class="st0" d="M873.8,316.3v10c0,3.8-11.8,3.9-12.6,0.4c-0.2-1.4,0-8.9-0.1-10.4c0-0.5,0.5-0.9,1.1-0.9        C863,315.8,874.1,314.5,873.8,316.3L873.8,316.3z"/>
						<path class="st0" d="M855.2,305.1c0,2.4,1.5,4.1,3,4.1c1,0,0.7-2.8,0.7-4.2s-0.8-2.9-1.8-2.9        C856.1,302.1,855.2,303.7,855.2,305.1L855.2,305.1z"/>
						<path class="st0" d="M880,305.1c0,2.4-1.5,4.1-3,4.1c-1,0-0.7-2.8-0.7-4.2s0.8-2.9,1.8-2.9S880,303.7,880,305.1L880,305.1z"/>
						<path class="st3" d="M857.7,304.7c-0.1,27.1,19.2,30.5,19.7,1.7C870.5,313.5,864.2,310.8,857.7,304.7z"/>
						<ellipse class="st3" cx="859.2" cy="299.2" rx="2.4" ry="6.4"/>
						<ellipse class="st3" cx="875.6" cy="299.2" rx="2.4" ry="6.4"/>
						<path class="st0" d="M857.8,304.7c-0.6,3.9,2,5.2,3.5,8c1.3,3.2,3.6,5.5,6.5,5.5s5-1.5,6-4.9c1-3.3,3.5-3.9,3.6-6.9        c0.2-8.5,0-16.4-10.2-16.1C858.4,290.2,857.8,296.5,857.8,304.7L857.8,304.7z"/>
					</g>
					<path class="st3" d="M874.9,299.8c-0.1,1.3-1.3,0.2-2.8,0.1s-2.6,0.8-2.4-0.6s1.3-1.6,2.8-1.5S875,298.5,874.9,299.8       L874.9,299.8z"/>
					<path class="st3" d="M865.8,299.3c0.1,1.3-1,0.3-2.5,0.4s-2.7,1.3-2.8,0s1-1.8,2.5-1.9S865.7,298,865.8,299.3L865.8,299.3z"/>
				</g>
			</g>
			<g>
				
					<linearGradient id="SVGID_00000051369241276356737580000013987823342516174769_" gradientUnits="userSpaceOnUse" x1="-6807.1904" y1="5547.4492" x2="-6807.1904" y2="5506.769" gradientTransform="matrix(1 0 0 1 7645.4902 -5090.3691)">
					<stop offset="0" style="stop-color:#007BFF"/>
					<stop offset="1" style="stop-color:#90B3FB"/>
				</linearGradient>
				<circle style="fill:url(#SVGID_00000051369241276356737580000013987823342516174769_);" cx="838.3" cy="439.9" r="21.4"/>
				<g>
					<path class="st11" d="M852.5,455.9c-3.8,3.3-8.7,5.4-14.2,5.4c-5.1,0-9.8-1.8-13.5-4.8c1.5-10.3,7.3-13.2,17.2-12.3       c-0.1,0.4,1.2,0.6,1.5,0.7C849,445.2,852,450,852.5,455.9L852.5,455.9z"/>
					<ellipse class="st0" cx="840.4" cy="432" rx="9.5" ry="9.2"/>
					<path class="st6" d="M833.2,433.7c2.2-8,7.1-6,10.2-0.5c0,0,0,0,0.1,0c2.6-2.3,2,3.8,0.1,3.9c-0.5,2.4-1.9,5.1,0,7.9       c0.2,0.4,0.1,0.6-0.1,1c-1.7,4.1-7.8,4.1-8.2-0.8c0.8-1.7,1.2-3.1,1.2-4.3C834.5,439.6,832.9,436.8,833.2,433.7L833.2,433.7z"/>
					<path class="st5" d="M843,443.5L843,443.5c0,0-4.5,0.5-5.3-2.1c2,0.3,4.3-0.7,5.7-2.7C842.9,440.5,842.5,442.4,843,443.5z"/>
					<ellipse class="st6" cx="843.9" cy="436.7" rx="0.3" ry="0.3"/>
				</g>
			</g>
			<g>
				
					<linearGradient id="SVGID_00000075858898228174458370000004000432721504285321_" gradientUnits="userSpaceOnUse" x1="-6476.9902" y1="5312.7993" x2="-6476.9902" y2="5272.1089" gradientTransform="matrix(1 0 0 1 7645.4902 -5090.3691)">
					<stop offset="0" style="stop-color:#007BFF"/>
					<stop offset="1" style="stop-color:#90B3FB"/>
				</linearGradient>
				<circle style="fill:url(#SVGID_00000075858898228174458370000004000432721504285321_);" cx="1168.5" cy="205.2" r="21.4"/>
				<g>
					<g>
						<path class="st6" d="M1187.9,214.2c-5.2,12.1-22.2,16.3-32.4,7.9c1.3-8,6.9-12.4,13.5-13.1c0.4-0.1,0.8-0.1,1.2-0.1        C1176,208.8,1183.2,210.5,1187.9,214.2z"/>
						<path class="st3" d="M1165.9,196.3c3.8,2.8,1.6-5.9,1.6-5.9S1162.2,193.5,1165.9,196.3L1165.9,196.3z"/>
						<path class="st0" d="M1180.1,196c-0.4-10.1-11.5-9.6-13.9-2.7c-1,2.4-0.2,9.1,0.8,11.4c0.6,1.1,0.9,1.6,1.8,2.2        c0.1,1.3,0.3,3.8,0.3,3.9c0.6,3.7,9.9,2.8,9.3-0.9c-1.4-2-0.9-4.5-0.5-5.9c0.4-1,0.7-1.7,0.9-2.4c0.7-2.1,2.5-0.7,2.7-3.8        C1181.4,196.4,1180.7,195.8,1180.1,196L1180.1,196z"/>
					</g>
					<g>
						<path class="st3" d="M1168.8,206.8c0.2,2.2,0.2,2.7,0.2,3.4c0-0.9,5.1-4.1,5.5-4.5C1172.4,206.8,1170.4,207.4,1168.8,206.8        L1168.8,206.8z"/>
						<path class="st3" d="M1167,190.7c0,1.1,3.9,0.7,6,0.7s6.6,0.7,6.6-0.4c0-1.1-2.6-4.1-6-4.1        C1170.3,186.8,1167,189.6,1167,190.7z"/>
						<path class="st3" d="M1180.5,196c-1.4-0.1-2,1.2-2.9,1.1c-2.6-0.2-1.7-1.2-1.5-4.5C1176.3,187.7,1182.8,191.6,1180.5,196        L1180.5,196z"/>
					</g>
				</g>
			</g>
			<g>
				
					<linearGradient id="SVGID_00000130635110583422700030000005296240220598471062_" gradientUnits="userSpaceOnUse" x1="-6829.9902" y1="5186.3989" x2="-6829.9902" y2="5128.269" gradientTransform="matrix(1 0 0 1 7645.4902 -5090.3691)">
					<stop offset="0" style="stop-color:#007BFF"/>
					<stop offset="1" style="stop-color:#90B3FB"/>
				</linearGradient>
				<circle style="fill:url(#SVGID_00000130635110583422700030000005296240220598471062_);" cx="815.5" cy="71.4" r="30.5"/>
				<g>
					<g>
						<path class="st3" d="M836.4,93.8c-5.5,5.1-12.8,8.2-20.8,8.2c-7.9,0-15.1-3-20.5-7.9c2.1-14.6,12.5-17.6,25.6-16.5        c-0.1,0.5,1.8,0.8,2.3,0.9C831.1,79.1,835.9,85.3,836.4,93.8z"/>
						<path class="st6" d="M832.4,69.6c0.2,1.8,1.4,2.9,2.4,4.3h-33.5c0.3-9,2.6-21.7,11.5-23.8c5.8-1.3,12.3,0.7,14.6,5.8        c0.6,1.8,0.2,3.3,1.6,4.8C833,63.7,833.1,64.9,832.4,69.6z"/>
						<path class="st0" d="M807.9,62.7c0.6-5.8,3.5-6.8,5.8-6.8c3.7,0.1,6.2,1.6,8.8,6.1h0.1c3.7-3.3,2.9,5.4,0.2,5.5        c-0.7,3.4-2.7,7.3,0,11.2c0.3,0.6,0.1,0.8-0.1,1.5c-2.5,5.9-11.1,5.8-11.8-1.2c1.2-2.4,1.6-4.4,1.8-6.1        C809.7,71.1,807.4,67.1,807.9,62.7L807.9,62.7z"/>
						<path class="st3" d="M821.9,76.6L821.9,76.6c0,0-6.4,0.7-7.6-3c2.8,0.4,6.1-1,8.1-3.8C821.8,72.4,821.2,75,821.9,76.6        L821.9,76.6z"/>
						
							<ellipse transform="matrix(0.8198 -0.5727 0.5727 0.8198 110.0692 483.3605)" class="st6" cx="823" cy="66.8" rx="0.4" ry="0.4"/>
					</g>
					<path class="st11" d="M822.7,61.8h-15v0.8c-0.2,4.1,6.8,3.8,6.4,0h0.9c-0.2,2.8,3.2,4,4.9,2.9c1-0.6,1.5-1.8,1.5-2.9h1.3       L822.7,61.8L822.7,61.8z"/>
				</g>
			</g>
			<g>
				
					<linearGradient id="SVGID_00000039118003607045794830000010270728346195571354_" gradientUnits="userSpaceOnUse" x1="-6484.4902" y1="5190.3091" x2="-6484.4902" y2="5149.6191" gradientTransform="matrix(1 0 0 1 7645.4902 -5090.3691)">
					<stop offset="0" style="stop-color:#007BFF"/>
					<stop offset="1" style="stop-color:#90B3FB"/>
				</linearGradient>
				<path style="fill:url(#SVGID_00000039118003607045794830000010270728346195571354_);" d="M1182.4,82.7c0,5.8-2.3,11-6,14.8      c-3.9,4-9.3,6.5-15.4,6.5c-6.8,0-12.9-3.2-16.8-8.1c-2.9-3.6-4.6-8.2-4.6-13.2c0-11.8,9.6-21.4,21.4-21.4      C1172.8,61.3,1182.4,70.9,1182.4,82.7L1182.4,82.7z"/>
				<path class="st3" d="M1176.4,97.6c-3.9,4-9.3,6.5-15.4,6.5c-6.8,0-12.9-3.2-16.8-8.1c2.6-1.1,6.6-2.1,8-2.9      c0.3-2.2,2.1-3.5,3.2-3.7c0,0,5.3,0,10,0.5s4.2,3.7,4.2,3.7C1169.8,93.7,1173,95.5,1176.4,97.6L1176.4,97.6z"/>
				<path class="st6" d="M1168.1,75.9c-0.2,0-0.3,0.1-0.5,0.2c-0.1-5.2-1.2-8.5-7.2-8.5c-5.5,0-6.4,3.6-6.5,8.5      c-0.1-0.1-0.3-0.2-0.5-0.2c-0.7,0-1.3,1.1-1.3,2.1c0,1.6,1,2.8,2,2.9c0.3,2,1,3.8,2.1,5.1v5.7c0.1,2.8,8.9,2.7,8.9,0V87      c1.6-1.5,2.2-3.8,2.4-6.1c1.1-0.1,2-1.3,2-2.9C1169.5,77,1168.8,75.9,1168.1,75.9L1168.1,75.9z"/>
				<path class="st5" d="M1153.9,77.7c0,6.5,1.3,10.5,4.3,10.5l4.8-0.1c4.6,0,4.6-7.3,4.8-10.4c-2.1,2.2-4,3.9-6.9,3.9      C1158.2,81.7,1155.8,80.7,1153.9,77.7L1153.9,77.7z M1159.2,84.1c-0.1-0.8,2.9-0.3,3.3-0.4c0.2,0,0.4,0.2,0.4,0.4      c0,0.3,0.1,1-0.4,1h-2.9C1159,85.1,1159.2,84.4,1159.2,84.1L1159.2,84.1z"/>
			</g>
			<g>
				
					<linearGradient id="SVGID_00000022536670585048049590000010705873241493463433_" gradientUnits="userSpaceOnUse" x1="-6506.4902" y1="5475.1089" x2="-6506.4902" y2="5416.979" gradientTransform="matrix(1 0 0 1 7645.4902 -5090.3691)">
					<stop offset="0" style="stop-color:#007BFF"/>
					<stop offset="1" style="stop-color:#90B3FB"/>
				</linearGradient>
				<circle style="fill:url(#SVGID_00000022536670585048049590000010705873241493463433_);" cx="1139" cy="360.1" r="30.6"/>
				<g>
					<path class="st5" d="M1168.5,368.1c-0.8,3-2,5.8-3.6,8.3c-5.4,8.6-15,14.3-25.9,14.3c-5.1,0-9.9-1.2-14.1-3.5       c-1.3-0.7-2.5-1.4-3.7-2.2C1120.4,367.3,1152,352.5,1168.5,368.1L1168.5,368.1z"/>
					<g>
						<path class="st6" d="M1139,390.7c-5.1,0-9.9-1.2-14.1-3.5c1.8-9,4.5-13.5,12.4-17.3c4-2.2,10.1-1.1,14-1.3        c-0.1,0.5,1.8,0.9,2.3,0.9c4.1,0,9,3,11.3,6.9C1159.5,385,1149.9,390.7,1139,390.7L1139,390.7z"/>
						<path class="st6" d="M1156.9,355c1.3-8.7-5.8-15.9-12.2-15.9c-8.1,0-13.5,11.9-7.2,18.2C1133.4,375.4,1166.7,371.7,1156.9,355        L1156.9,355z"/>
						<path class="st0" d="M1138.6,353.4c-1-10.4,12.4-8.6,14.7-0.6h0.1c3.7-3.3,2.9,5.5,0.2,5.5c-0.7,3.4-2.7,7.3,0,11.2        c0.3,0.6,0.1,0.8-0.1,1.5c-2.5,3.2-10.6,4.6-13.3,1.6c0.9-2.9,3.6-6.5,3.3-8.9C1140.4,361.8,1138,357.8,1138.6,353.4        L1138.6,353.4z"/>
						<path class="st3" d="M1152.5,367.3L1152.5,367.3c0,0-6.4,0.7-7.6-3c2.8,0.4,6.1-1,8.1-3.8        C1152.4,363.1,1151.8,365.8,1152.5,367.3L1152.5,367.3z"/>
						
							<ellipse transform="matrix(0.8198 -0.5727 0.5727 0.8198 3.1149 725.1302)" class="st6" cx="1153.7" cy="357.6" rx="0.4" ry="0.4"/>
					</g>
				</g>
			</g>
			<g>
				
					<linearGradient id="SVGID_00000103955539812261165260000000810147942403551399_" gradientUnits="userSpaceOnUse" x1="-6572.6904" y1="5297.749" x2="-6572.6904" y2="5239.6191" gradientTransform="matrix(1 0 0 1 7645.4902 -5090.3691)">
					<stop offset="0" style="stop-color:#007BFF"/>
					<stop offset="1" style="stop-color:#90B3FB"/>
				</linearGradient>
				<circle style="fill:url(#SVGID_00000103955539812261165260000000810147942403551399_);" cx="1072.8" cy="182.8" r="30.6"/>
				<path class="st3" d="M1098.4,199.5c-5.5,8.3-14.9,13.9-25.6,13.9s-20-5.4-25.5-13.7C1060.3,186.9,1085.1,186.3,1098.4,199.5      L1098.4,199.5z"/>
				<path class="st0" d="M1082.3,169.7c0,1.6-7.3-3-10.2-3s-9.1,1-9.1-0.6s3.6-5.3,8.3-5.9C1088,158.1,1082.3,168.2,1082.3,169.7      L1082.3,169.7z"/>
				<path class="st6" d="M1062.3,173.3c-0.8-0.3-1.9,0.5-1.9,2.3c0.3,4.5,3.2,3.8,4.1,6.8c0.6,1.2,1.5,3.6,1.5,3.6s-1,5.2-1.2,9      c-0.8,5.3,12.4,7.4,13.3,2.1c0-0.1,0.1-4.8,0.4-8.4c1.2-0.8,2.1-1.9,2.5-2.9c2.1-3.5-1.7-13.7,1.2-16.1      C1082.9,168.9,1062.9,158.9,1062.3,173.3L1062.3,173.3z"/>
				<path class="st0" d="M1061.7,173.3c2-0.1,3,1.1,4.3,3c3.5,0.6-0.1-2.6,2.1-7.8C1066.6,161.6,1058.4,167,1061.7,173.3      L1061.7,173.3z"/>
				<path class="st5" d="M1066,186c0,0,2.8,2.4,6.1,2.9c-3.5,1.1-6.7,0.9-6.7,0.9L1066,186L1066,186z"/>
			</g>
			<g>
				
					<linearGradient id="SVGID_00000141422560640939611780000000213379845550095026_" gradientUnits="userSpaceOnUse" x1="-6671.8901" y1="5501.4092" x2="-6671.8901" y2="5443.2793" gradientTransform="matrix(1 0 0 1 7645.4902 -5090.3691)">
					<stop offset="0" style="stop-color:#007BFF"/>
					<stop offset="1" style="stop-color:#90B3FB"/>
				</linearGradient>
				<circle style="fill:url(#SVGID_00000141422560640939611780000000213379845550095026_);" cx="973.6" cy="386.4" r="30.5"/>
				<g>
					<g>
						<path class="st0" d="M949,404.4c10.5,15.5,35.8,16.7,47.8,1.9c-1.9-3.9-6.3-5-10.2-5.5c0,0,0.8-4.5-6-5.3s-14.3-0.8-14.3-0.8        s-3.8,0.8-4.5,5.3c-2.5,1.4-8.1,1-10.4,3C951,404.1,950.1,404.3,949,404.4L949,404.4z"/>
						<path class="st4" d="M980.2,398v-8.3c0-0.5-0.5-0.9-1.1-0.9h-10.5c-0.6,0-1.1,0.4-1.1,0.9v8.3        C967.6,401.9,980.2,401.9,980.2,398z"/>
						<path class="st5" d="M985.9,375.5c-0.3,0-0.5,0.1-0.8,0.2c-0.7-15.3-21.9-15.8-22.3,0c-4.2-0.9-3.1,7.3,0.5,6.9        c0.5,2.9,1.8,5.8,4.2,7.7v7.6c0.2,4,12.7,3.8,12.7,0V390c2.2-1.8,3.6-4.5,4.4-7.5C987.9,383.1,989.7,376.2,985.9,375.5        L985.9,375.5z"/>
					</g>
					<path class="st0" d="M963.9,370c3.8,1.1,16.4,1.1,20.1,0c-1.9-4-4.4-6.3-9.9-6.3S965.5,366,963.9,370z"/>
				</g>
				<path class="st18" d="M980.2,390c0,0-3.2,1.7-5,1.8c3.5,0.9,5.1,1.3,5.1,1.3L980.2,390L980.2,390z"/>
			</g>
			<g>
				
					<linearGradient id="SVGID_00000089545319988825385660000003207834031938193281_" gradientUnits="userSpaceOnUse" x1="-6673.3901" y1="5231.0591" x2="-6673.3901" y2="5172.9292" gradientTransform="matrix(1 0 0 1 7645.4902 -5090.3691)">
					<stop offset="0" style="stop-color:#007BFF"/>
					<stop offset="1" style="stop-color:#90B3FB"/>
				</linearGradient>
				<circle style="fill:url(#SVGID_00000089545319988825385660000003207834031938193281_);" cx="972.1" cy="116.1" r="30.5"/>
				<g>
					<g>
						<path class="st6" d="M947.5,134c10.5,15.4,35.8,16.7,47.8,1.9c-1.9-3.9-6.3-5-10.2-5.5c0,0,0.8-4.5-6-5.3s-14.3-0.8-14.3-0.8        s-3.8,0.8-4.5,5.3c-2.5,1.4-8.1,1-10.4,3.1C949.4,133.8,948.5,134,947.5,134L947.5,134z"/>
						<path class="st4" d="M978.7,127.6v-8.3c0-0.5-0.5-0.9-1.1-0.9h-10.5c-0.6,0-1.1,0.4-1.1,0.9v8.3        C966,131.5,978.7,131.5,978.7,127.6z"/>
						<path class="st0" d="M984.4,105.2c-0.3,0-0.5,0.1-0.8,0.2c-0.7-15.3-21.9-15.8-22.3-0.1c-4.2-0.9-3.1,7.3,0.5,6.9        c0.5,2.9,1.8,5.8,4.2,7.7v7.6c0.2,4.1,12.7,3.8,12.7,0v-7.9c2.2-1.8,3.6-4.5,4.4-7.4C986.4,112.8,988.2,105.8,984.4,105.2z"/>
					</g>
					<path class="st3" d="M962.4,99.6c3.8,1.1,16.4,1.1,20.1,0c-1.9-4-4.4-6.3-9.9-6.3S964,95.7,962.4,99.6z"/>
				</g>
				<path class="st3" d="M978.7,119.7c0,0-3.2,1.7-5,1.8c3.5,0.9,5.1,1.3,5.1,1.3L978.7,119.7L978.7,119.7z"/>
			</g>
			<g>
				
					<linearGradient id="SVGID_00000013893543220819266070000017706569324078365335_" gradientUnits="userSpaceOnUse" x1="17716.8438" y1="5570.6392" x2="17716.8438" y2="5512.5093" gradientTransform="matrix(-1 0 0 1 18784.9434 -5090.3691)">
					<stop offset="0" style="stop-color:#007BFF"/>
					<stop offset="1" style="stop-color:#90B3FB"/>
				</linearGradient>
				<circle style="fill:url(#SVGID_00000013893543220819266070000017706569324078365335_);" cx="1068.1" cy="455.6" r="30.6"/>
				<g>
					<path class="st3" d="M1046.7,477.5c5.5,5.4,13,8.7,21.3,8.7c7.8,0,15-3,20.4-7.8c-2.2-14.8-12.7-17.7-25.9-16.6       c0.1,0.5-1.8,0.9-2.3,0.9C1052.2,463.3,1047.4,469.3,1046.7,477.5L1046.7,477.5z"/>
					<path class="st6" d="M1053.3,444.1c0.3-2.5,1.6-4.3,3.5-5.6c1.7-12.3,23.9-9.9,21.3,3c2.6,3,1.9,8.5-1.4,10.8       c-0.9,12.7-23.6,10.9-21.4-2.1C1053.9,448.5,1053.1,446.5,1053.3,444.1z"/>
					<path class="st0" d="M1075.3,446.9c-3.2-11.5-10.1-8.6-14.6-0.7h-0.1c-3.7-3.3-2.9,5.5-0.2,5.5c0.7,3.4,2.7,7.3,0,11.2       c-0.3,0.6-0.1,0.8,0.1,1.5c2.5,5.9,11.1,5.8,11.8-1.2c-1.2-2.4-1.6-4.4-1.8-6.1C1073.5,455.3,1075.8,451.3,1075.3,446.9z"/>
					<path class="st3" d="M1061.4,460.8L1061.4,460.8c0,0,6.4,0.7,7.6-3c-2.8,0.4-6.1-1-8.1-3.8       C1061.5,456.6,1062.1,459.3,1061.4,460.8L1061.4,460.8z"/>
					
						<ellipse transform="matrix(0.5727 -0.8198 0.8198 0.5727 83.3633 1061.9586)" class="st6" cx="1060.3" cy="451" rx="0.4" ry="0.4"/>
				</g>
			</g>
			<g>
				
					<linearGradient id="SVGID_00000044148665162609028070000007960335606913309886_" gradientUnits="userSpaceOnUse" x1="17490.082" y1="5152.0293" x2="17490.082" y2="5111.3389" gradientTransform="matrix(-1 0 0 1 18554.582 -5090.3691)">
					<stop offset="0" style="stop-color:#007BFF"/>
					<stop offset="1" style="stop-color:#90B3FB"/>
				</linearGradient>
				<circle style="fill:url(#SVGID_00000044148665162609028070000007960335606913309886_);" cx="1064.5" cy="44.4" r="21.4"/>
				<path class="st3" d="M1046.6,56.1c3.8,5.8,10.4,9.7,17.9,9.7s14-3.8,17.8-9.6C1073.3,47.3,1055.9,46.9,1046.6,56.1z"/>
				<path class="st0" d="M1057.8,35.3c0,1.1,5.1-2.1,7.1-2.1s6.4,0.7,6.4-0.4s-2.5-3.7-5.8-4.1C1053.8,27.1,1057.8,34.2,1057.8,35.3      L1057.8,35.3z"/>
				<path class="st6" d="M1071.8,37.8c0.6-0.2,1.3,0.4,1.3,1.6c-0.2,3.1-2.2,2.6-2.9,4.7c-0.4,0.8-1,2.5-1,2.5s0.7,3.7,0.8,6.3      c0.6,3.7-8.7,5.2-9.3,1.5c0-0.1,0-3.3-0.3-5.9c-0.9-0.6-1.5-1.3-1.7-2c-1.4-2.4,1.2-9.6-0.8-11.3      C1057.4,34.7,1071.4,27.7,1071.8,37.8L1071.8,37.8z"/>
				<path class="st0" d="M1072.3,37.8c-1.4,0-2.1,0.8-3,2.1c-2.4,0.4,0.1-1.8-1.4-5.4C1068.8,29.6,1074.6,33.4,1072.3,37.8z"/>
				<path class="st5" d="M1069.3,46.7c0,0-1.9,1.7-4.2,2c2.4,0.8,4.7,0.6,4.7,0.6L1069.3,46.7z"/>
			</g>
			<circle class="st22" cx="821.9" cy="250" r="9.6"/>
			<circle class="st11" cx="692.5" cy="39.2" r="3.6"/>
			<circle class="st11" cx="844.3" cy="152.8" r="3.6"/>
			<circle class="st11" cx="941.8" cy="468.1" r="3.6"/>
			<circle class="st11" cx="1166.9" cy="443.1" r="3.6"/>
			<circle class="st11" cx="792.8" cy="317.6" r="3.6"/>
			<circle class="st11" cx="741.5" cy="418.2" r="3.6"/>
			<circle class="st11" cx="966.8" cy="14.6" r="3.6"/>
			<circle class="st11" cx="1095.1" cy="128.3" r="3.6"/>
			<circle class="st22" cx="968.5" cy="303.2" r="9.6"/>
			<circle class="st22" cx="791.9" cy="378.9" r="9.6"/>
			<circle class="st22" cx="1139.6" cy="14.6" r="9.6"/>
		</g>
	</g>
</g>
<g id="transparent_bg">
	<g id="transparent-gradient_00000140702761135217670850000003817123872324790202_">
		
			<linearGradient id="SVGID_00000064314220812308226540000008764587753021242525_" gradientUnits="userSpaceOnUse" x1="0" y1="252" x2="1200" y2="252" gradientTransform="matrix(1 0 0 -1 0 502)">
			<stop offset="0" style="stop-color:#007BFF"/>
			<stop offset="0.2" style="stop-color:#007BFF;stop-opacity:0"/>
			<stop offset="0.3" style="stop-color:#007BFF;stop-opacity:0"/>
			<stop offset="0.5" style="stop-color:#007BFF"/>
			<stop offset="0.7" style="stop-color:#007BFF;stop-opacity:0"/>
			<stop offset="0.8" style="stop-color:#007BFF;stop-opacity:0"/>
			<stop offset="1" style="stop-color:#007BFF"/>
		</linearGradient>
		<rect style="fill:url(#SVGID_00000064314220812308226540000008764587753021242525_);" width="1200" height="500"/>
	</g>
</g>
<g id="artwork">
	<g id="card_00000052082545946033343170000008593864829342948754_">
		
			<linearGradient id="SVGID_00000125580294658028062490000010907896908684735115_" gradientUnits="userSpaceOnUse" x1="600" y1="110.3678" x2="600" y2="233.1294" gradientTransform="matrix(1 0 0 -1 0 500)">
			<stop offset="0" style="stop-color:#007BFF"/>
			<stop offset="0.3211" style="stop-color:#90B3FB"/>
			<stop offset="0.99" style="stop-color:#CCE5FF"/>
		</linearGradient>
		<path style="fill:url(#SVGID_00000125580294658028062490000010907896908684735115_);" d="M820.1,352.6H379.9c-4.9,0-8.9-4-8.9-8.9    V152.2c0-4.9,4-8.9,8.9-8.9h440.1c4.9,0,8.9,4,8.9,8.9v191.5C828.9,348.6,824.9,352.6,820.1,352.6z"/>
	</g>
	<g id="AHP">
		<g class="st38">
			<path class="st3" d="M466.4,249.8h-27.6l-4.8,15.6h-21.5l30.6-83.4H462l30.9,83.4h-21.6L466.4,249.8z M443.7,234.3h17.9l-9-28.9     L443.7,234.3z"/>
			<path class="st3" d="M569.8,265.4h-19.9v-34.8h-29.6v34.8h-20.1v-83.4h20.1V215h29.6v-33.1h19.9V265.4z"/>
			<path class="st3" d="M603.6,237.1v28.3h-20.1v-83.4h33.2c6.4,0,12.1,1.2,16.9,3.5c4.9,2.3,8.7,5.7,11.4,10     c2.7,4.3,4.1,9.2,4.1,14.7c0,8.2-2.9,14.6-8.8,19.5c-5.9,4.9-13.8,7.3-23.9,7.3L603.6,237.1L603.6,237.1z M603.6,221.6h13.2     c3.9,0,6.8-1,8.9-2.9c2-2,3.1-4.7,3.1-8.2c0-3.9-1.1-7-3.2-9.3c-2.1-2.3-5-3.5-8.6-3.5h-13.4L603.6,221.6L603.6,221.6z"/>
		</g>
	</g>
	<g id="words">
		<g>
			<g>
				<text transform="matrix(1 0 0 1 671.5254 201.8076)" class="st3 st39 st40">Analytic</text>
			</g>
			<g>
				<text transform="matrix(1 0 0 1 671.4531 233.1006)" class="st3 st39 st40">Hierarchy</text>
			</g>
			<g>
				<text transform="matrix(1 0 0 1 672.7129 265.2588)" class="st3 st39 st40">Process</text>
			</g>
		</g>
	</g>
	<g id="digits_with_bg">
		
			<linearGradient id="SVGID_00000098203524419573488330000012257388777697305242_" gradientUnits="userSpaceOnUse" x1="411.6783" y1="200.2204" x2="790.2723" y2="200.2204" gradientTransform="matrix(1 0 0 -1 0 500)">
			<stop offset="9.584666e-09" style="stop-color:#2F55E5"/>
			<stop offset="0.25" style="stop-color:#007BFF"/>
			<stop offset="0.5" style="stop-color:#3395FF"/>
			<stop offset="0.75" style="stop-color:#66B0FF"/>
			<stop offset="1" style="stop-color:#80BDFF"/>
		</linearGradient>
		<path style="fill:url(#SVGID_00000098203524419573488330000012257388777697305242_);" d="M785,313.1H417c-2.9,0-5.3-2.4-5.3-5.3    v-16c0-2.9,2.4-5.3,5.3-5.3h368c2.9,0,5.3,2.4,5.3,5.3v16C790.3,310.7,787.9,313.1,785,313.1z"/>
		<g>
			<g>
				<text transform="matrix(1 0 0 1 667.8281 305.3105)" class="st42 st39 st43">4</text>
			</g>
			<g>
				<text transform="matrix(1 0 0 1 688.2109 305.3105)" class="st42 st39 st43">5</text>
			</g>
			<g>
				<text transform="matrix(1 0 0 1 708.5918 305.3105)" class="st42 st39 st43">6</text>
			</g>
			<g>
				<text transform="matrix(1 0 0 1 728.9736 305.3105)" class="st42 st39 st43">7</text>
			</g>
			<g>
				<text transform="matrix(1 0 0 1 749.3555 305.3105)" class="st42 st39 st43">8</text>
			</g>
			<g>
				<text transform="matrix(1 0 0 1 769.7373 305.3105)" class="st42 st39 st43">9</text>
			</g>
		</g>
		<g>
			<g>
				<text transform="matrix(1 0 0 1 593.6821 305.3105)" class="st42 st39 st43">1</text>
			</g>
			<g>
				<text transform="matrix(1 0 0 1 615.0117 305.3105)" class="st42 st39 st43">2</text>
			</g>
			<g>
				<text transform="matrix(1 0 0 1 572.3535 305.3105)" class="st42 st39 st43">2</text>
			</g>
			<g>
				<text transform="matrix(1 0 0 1 551.0229 305.3105)" class="st42 st39 st43">3</text>
			</g>
			<g>
				<text transform="matrix(1 0 0 1 529.6938 305.3105)" class="st42 st39 st43">4</text>
			</g>
			<g>
				<text transform="matrix(1 0 0 1 508.3647 305.3105)" class="st42 st39 st43">5</text>
			</g>
			<g>
				<text transform="matrix(1 0 0 1 487.0347 305.3105)" class="st42 st39 st43">6</text>
			</g>
			<g>
				<text transform="matrix(1 0 0 1 465.7056 305.3105)" class="st42 st39 st43">7</text>
			</g>
			<g>
				<text transform="matrix(1 0 0 1 444.376 305.3105)" class="st42 st39 st43">8</text>
			</g>
			<g>
				<text transform="matrix(1 0 0 1 423.0464 305.3105)" class="st42 st39 st43">9</text>
			</g>
		</g>
	</g>
	<g id="highlited_3">
		
			<radialGradient id="shadow_00000001632728616633593230000011370162494053090946_" cx="645.6618" cy="200.2204" r="35.3768" gradientTransform="matrix(1 0 0 -1 0 500)" gradientUnits="userSpaceOnUse">
			<stop offset="0" style="stop-color:#007BFF"/>
			<stop offset="1" style="stop-color:#80BDFF;stop-opacity:0"/>
		</radialGradient>
		
			<circle id="shadow" style="opacity:0.5;fill:url(#shadow_00000001632728616633593230000011370162494053090946_);enable-background:new    ;" cx="645.7" cy="299.8" r="35.4"/>
		<path class="st6" d="M655.8,314.7h-19.5c-2.9,0-5.3-2.4-5.3-5.3v-19.5c0-2.9,2.4-5.3,5.3-5.3h19.5c2.9,0,5.3,2.4,5.3,5.3v19.5    C661.1,312.3,658.7,314.7,655.8,314.7z"/>
		<text transform="matrix(1 0 0 1 639.835 307.4053)" class="st0 st45 st46">3</text>
	</g>
	<g id="mouse">
		<polygon class="st3" points="658.6,324.9 662.9,332.8 667,330.7 662.8,322.8 670.8,323.5 653.3,309.2 654,331.6   "/>
	</g>
</g>
</g>
</svg>